<?xml version="1.0" encoding="UTF-8"?>
<svg id="Layer_2" data-name="Layer 2" xmlns="http://www.w3.org/2000/svg" viewBox="0 0 257.68 62.55">
  <g id="Layer_1-2" data-name="Layer 1">
    <g>
      <path d="M98.28,56.69c-.01-.62-.34-1.19-.85-1.49,0,0-.02,0-.03-.01-.16-.09-.33-.15-.52-.18-.05,0-.11-.03-.16-.03-.11,0-.2-.03-.31-.04-.2-.04-.4-.08-.57-.17-.35-.19-.68-.34-.9-.7-.16-.27-.21-.63-.14-1.08.02-.15.06-.31.1-.48l1.91-6.9h0s.61-2.21.61-2.21c.69-2.48.81-4.79.36-6.91-.45-2.13-1.52-4-3.2-5.62-1.69-1.62-4.04-2.85-7.04-3.68-1.93-.53-4.11-.83-6.54-.88-1.8-.04-5.27.24-7.48.49-.33.04-.57.38-.42.67,1.83,3.56,1.21,5.21,1.46,6.57.05.25.27.42.52.4,1.35-.09,2.94-.13,4.12-.1,1.89.06,3.49.28,4.8.64,1.16.32,2.18.75,3.06,1.3.89.55,1.53,1.18,1.93,1.92.18.33.29.68.34,1.05.03.25.03.51,0,.78-.02.17-.05.35-.1.52,0,.03,0,.06-.02.09l-.53,1.92c-.7-.63-1.41-1.22-2.13-1.76-.36-.27-.75-.53-1.17-.78-.42-.25-.87-.48-1.35-.7-.96-.44-2.03-.82-3.23-1.15-.44-.12-.89-.22-1.35-.3-.45-.08-.92-.13-1.38-.16-.47-.03-.94-.04-1.42-.03-.48.01-.96.05-1.45.11-.49.06-.97.15-1.43.27-1.4.36-2.69.97-3.89,1.85-1.59,1.17-2.73,2.91-3.4,5.21-.02.08-.03.16-.05.24h0c-.56,2.12-.63,4-.2,5.63.44,1.69,1.27,3.08,2.48,4.18h0s.07.05.1.08c.58.51,1.2.95,1.88,1.32.02.01.05.02.07.03.7.37,1.45.67,2.25.89,1.21.34,2.43.49,3.65.47.41,0,.81-.04,1.22-.08,1.63-.19,3.31-.68,5.05-1.47.95-.43,1.91-.95,2.88-1.54.02.49.06.96.15,1.41.3,1.53.91,2.8,1.81,3.79.81.88,1.76,1.49,2.85,1.86.14.05.27.11.42.15,1.27.35,2.45.51,3.54.46.54-.02,1.03-.06,1.44-.11.64-.08,1.15-.55,1.28-1.18l.89-4.15c.03-.13.04-.26.04-.38,0-.01,0-.03,0-.04ZM78.99,50.42c-.44-.03-.82-.08-1.13-.17-.16-.04-.3-.11-.45-.16-.28-.1-.55-.23-.81-.38-.07-.04-.14-.07-.21-.11-.02-.01-.03-.03-.05-.04-.41-.28-.72-.61-.9-1.02-.15-.32-.2-.66-.15-1.03.01-.12.04-.25.08-.38.19-.68.55-1.17,1.09-1.46.54-.29,1.18-.44,1.93-.47.63-.02,1.27.07,1.94.22.14.03.27.04.41.08.34.09.72.22,1.12.36.77.27,1.62.63,2.59,1.08.15.07.31.16.47.24.18.1.36.2.54.31.16.09.32.19.47.3.36.24.73.5,1.11.79l-.02.06c-.73.33-1.45.62-2.13.84-1.62.52-3.03.82-4.23.9-.3.02-.59.03-.85.04-.29,0-.56,0-.81-.02Z"/>
      <path d="M27.9,31.4c3.84-.54,6.84-3.48,6.84-10.32,0-8.16-5.04-10.68-12-10.68H1.68c-1.08,0-1.68.84-1.68,1.68,0,.78.54,1.56,1.68,1.56,0,0,3.36,0,3.36,2.46v36.48c0,2.4-3.12,2.64-3.12,2.64-1.2,0-1.74.66-1.74,1.44,0,.84.66,1.74,1.74,1.74h22.68c8.7,0,13.26-7.5,13.38-14.22.12-7.38-5.94-12.3-10.08-12.78ZM14.58,15.8c0-1.02.42-1.44,1.44-1.44l4.92.06c4.2,0,5.94,3.72,5.88,7.92,0,3.9-1.74,7.92-6.18,7.92h-6.12l.06-14.46ZM21.12,54.14h-5.28c-.72,0-1.26-.42-1.26-1.38v-18h6.48c5.22,0,7.98,3.84,7.98,8.88.06,5.28-1.14,10.5-7.92,10.5Z"/>
      <path d="M59.7,26.12c-2.76,0-5.04.9-6.78,1.98v-1.5l-11.7.06c-.96,0-1.68.72-1.68,1.56,0,.78.48,1.68,1.68,1.68,0,0,2.16,0,2.16,2.46v20.22c0,2.4-2.4,2.64-2.4,2.64-.96,0-1.38.78-1.38,1.62s.54,1.56,1.38,1.56h14.34c.9,0,1.44-.78,1.44-1.56,0-.84-.42-1.68-1.44-1.68,0,0-2.46-.12-2.46-2.64l.06-19.92.12-.06c1.44-.84,2.82-1.2,4.02-1.2,2.52,0,4.26,1.44,4.26,2.04,0,.12,0,.18-.12.24-1.02.54-1.56,1.86-1.56,3.18s1.56,3.78,4.62,3.78c3.42,0,5.46-3,5.46-6.78,0-3.36-2.28-7.68-10.02-7.68Z"/>
      <path d="M135.96,55.16s-2.46-.06-2.46-2.64v-17.16c0-7.14-6-9.18-11.46-9.18-4.74,0-7.38,2.04-8.76,3.66l-.06-3.24-11.64.06c-1.08,0-1.68.84-1.68,1.68,0,.78.54,1.56,1.68,1.56,0,0,2.16,0,2.16,2.46v20.22c0,2.4-2.4,2.64-2.4,2.64-.96,0-1.38.72-1.38,1.56s.48,1.62,1.38,1.62h14.34c.96,0,1.44-.9,1.44-1.74,0-.78-.54-1.5-1.44-1.5,0,0-2.46-.12-2.46-2.64l.06-18.24c1.44-1.38,2.82-2.4,5.34-2.4,3.54,0,5.4,2.22,5.4,5.34v15.36c0,2.4-2.4,2.64-2.4,2.64-1.02,0-1.44.66-1.44,1.5s.48,1.68,1.44,1.68h14.34c1.08,0,1.5-.96,1.5-1.8-.12-.78-.6-1.44-1.5-1.44Z"/>
      <path d="M169.94,13.64c1.26,0,1.68-.84,1.68-1.62s-.6-1.62-1.68-1.62h-13.86c-1.14,0-1.74.84-1.74,1.62-.06,2.88,4.02-.12,4.02,4.08l-.06,11.88c-2.22-1.38-4.86-2.22-7.68-2.22-8.52,0-12.96,7.32-12.96,16.38s5.28,16.86,13.8,16.86c2.82,0,5.64-1.44,6.9-2.64l-.06,2.04h11.94c.9,0,1.38-.9,1.38-1.8,0-.78-.54-1.38-1.38-1.38,0,0-2.4-.24-2.4-2.64V16.1c0-2.46,2.1-2.46,2.1-2.46ZM153.32,53.36c-4.44,0-5.76-5.1-5.76-11.34s1.2-11.28,5.82-11.28c3.66,0,4.8,5.7,4.8,11.52s-1.02,11.1-4.86,11.1Z"/>
      <path d="M236.12,55.16s-2.46-.12-2.46-2.64l.06-24.25v-1.67s-11.7.06-11.7.06c-.42,0-.78.15-1.05.37-.39.32-.63.79-.63,1.25,0,.84.54,1.62,1.68,1.62,0,0,2.16,0,2.16,2.46v20.22c0,1.73-1.24,2.33-1.93,2.53-.81-.13-2.09-.64-3.67-2.41l-22.86-25.5c5.46-7.2,12.9-10.68,18.06-10.68.9,0,1.66.09,2.29.26.28.08.55-.12.61-.4.55-2.6,2.1-4.84,4.28-6.4.35-.25.24-.8-.18-.9-2.2-.53-4.29-.54-5.32-.54-3.12,0-7.08.6-11.22,2.94-6.06,3.42-12.54,9.84-15.84,17.1v-12.3c0-4.32,5.22-1.02,5.22-4.5,0-.72-.48-1.38-1.62-1.38h-16.38c-1.2,0-1.74.84-1.74,1.62,0,.84.54,1.68,1.56,1.68.12,0,3.48,0,3.48,2.4v36.48c0,2.4-3.36,2.64-3.36,2.64-1.14,0-1.62.66-1.62,1.44,0,.84.54,1.74,1.62,1.74h16.5c1.14,0,1.62-.78,1.62-1.62,0-.78-.66-1.62-1.62-1.62,0,0-3.6-.12-3.6-2.64v-13.38c.3-1.08,1.32-2.82,1.98-4.2l14.88,16.98c.6.66.84,1.2.84,1.62,0,2.58-4.38.6-4.38,3.24,0,.84.78,1.62,1.92,1.62h32.42c.9,0,1.38-.72,1.44-1.5,0-.84-.42-1.74-1.44-1.74Z"/>
      <path d="M228.5,23.36c3.3,0,6-2.16,6-4.86s-2.7-4.86-6-4.86-6.06,2.16-6.06,4.86,2.7,4.86,6.06,4.86Z"/>
      <path d="M254.98,32c1.74,0,2.7-1.44,2.7-2.82s-.84-2.58-2.7-2.58h-4.68v-9.3c0-1.08-1.2-1.74-2.4-1.74-1.08,0-2.16.54-2.16,1.74,0,3.72-1.8,7.74-6.12,9.3-1.8.66-2.58,1.92-2.58,3.06,0,1.26.9,2.34,2.58,2.34h1.26v20.28c0,5.46,4.86,7.02,7.5,7.02,3.6,0,6-1.25,8.39-3.13.21-.16.25-.46.11-.68l-1.05-1.56c-.16-.24-.49-.29-.72-.12-.52.39-1.48.99-2.52,1.11-.78,0-2.28-.9-2.28-2.46v-20.46h4.68Z"/>
      <g>
        <path d="M43.56,17.27c.95.93,2.08,1.65,3.38,2.17,1.3.52,2.71.78,4.24.78s2.94-.26,4.23-.78c1.29-.52,2.4-1.24,3.35-2.17.95-.93,1.68-2,2.21-3.22.53-1.22.79-2.53.79-3.93s-.27-2.71-.79-3.94c-.53-1.23-1.27-2.31-2.21-3.23-.95-.93-2.06-1.65-3.35-2.17-1.29-.52-2.69-.78-4.23-.78s-2.95.26-4.24.78c-1.3.52-2.42,1.24-3.38,2.17-.96.93-1.7,2-2.23,3.23-.53,1.23-.79,2.54-.79,3.94s.26,2.71.79,3.93c.53,1.22,1.27,2.29,2.23,3.22ZM45.72,7.7c.26-.77.63-1.45,1.13-2.06.5-.6,1.12-1.08,1.84-1.42s1.56-.51,2.48-.51,1.72.17,2.44.51c.72.34,1.32.8,1.82,1.39.49.59.87,1.27,1.13,2.04.26.78.4,1.6.4,2.47s-.13,1.66-.4,2.43c-.27.77-.64,1.45-1.13,2.04-.49.6-1.1,1.06-1.82,1.4-.72.34-1.53.51-2.44.51s-1.75-.17-2.48-.5c-.73-.33-1.34-.79-1.84-1.38-.5-.59-.88-1.27-1.13-2.04-.26-.78-.38-1.6-.38-2.47s.13-1.66.38-2.42Z"/>
        <path d="M69.8,19.85h9.97c.33,0,.6-.27.6-.6v-2.4c0-.33-.27-.6-.6-.6h-2.28c-.33,0-.6-.27-.6-.6v-1.77c0-.33.27-.6.6-.6h3.2c1.59,0,2.96-.27,4.13-.82,1.16-.55,2.06-1.32,2.69-2.31.63-.99.95-2.14.95-3.45s-.33-2.37-.98-3.32c-.65-.95-1.57-1.68-2.74-2.2-1.17-.52-2.54-.78-4.11-.78h-10.83c-.33,0-.6.27-.6.6v2.4c0,.33.27.6.6.6h1.97c.33,0,.6.27.6.6v11.05c0,.33-.27.6-.6.6h-1.97c-.33,0-.6.27-.6.6v2.4c0,.33.27.6.6.6ZM76.88,4.6c0-.33.27-.6.6-.6h2.83c.57,0,1.12.07,1.67.21.55.14,1.01.4,1.38.78.37.38.55.93.55,1.64,0,.87-.18,1.52-.55,1.96-.37.44-.82.72-1.36.87s-1.06.21-1.57.21l-2.95-.03c-.33,0-.6-.27-.6-.6v-4.43Z"/>
        <path d="M96.06,19.85h18.87c.33,0,.6-.27.6-.6v-6.03c0-.33-.27-.6-.6-.6h-2.79c-.33,0-.6.27-.6.6v2.42c0,.33-.27.6-.6.6h-7.22c-.33,0-.6-.27-.6-.6v-3.3c0-.33.27-.6.6-.6h1.77c.33,0,.6.27.6.6v1.03c0,.33.27.6.6.6h2.17c.33,0,.6-.27.6-.6v-6.51c0-.33-.27-.6-.6-.6h-2.17c-.33,0-.6.27-.6.6v1.03c0,.33-.27.6-.6.6h-1.77c-.33,0-.6-.27-.6-.6v-3.3c0-.33.27-.6.6-.6h7.22c.33,0,.6.27.6.6v2.42c0,.33.27.6.6.6h2.79c.33,0,.6-.27.6-.6V1c0-.33-.27-.6-.6-.6h-18.87c-.33,0-.6.27-.6.6v2.4c0,.33.27.6.6.6h1.94c.33,0,.6.27.6.6v11.05c0,.33-.27.6-.6.6h-1.94c-.33,0-.6.27-.6.6v2.4c0,.33.27.6.6.6Z"/>
        <path d="M125.18,19.85h9.46c.33,0,.6-.27.6-.6v-2.4c0-.33-.27-.6-.6-.6h-1.97c-.33,0-.6-.27-.6-.6v-7.57c0-.55.68-.81,1.05-.41l11.05,12.16c.11.13.28.2.45.2h1.6c.33,0,.6-.27.6-.6V4.6c0-.33.27-.6.6-.6h1.8c.33,0,.6-.27.6-.6V1c0-.33-.27-.6-.6-.6h-9.17c-.33,0-.6.27-.6.6v2.4c0,.33.27.6.6.6h1.97c.33,0,.6.27.6.6v6.14c0,.56-.69.82-1.06.4l-9.31-10.54c-.11-.13-.28-.2-.45-.2h-6.61c-.33,0-.6.27-.6.6v2.4c0,.33.27.6.6.6h1.97c.33,0,.6.27.6.6v11.05c0,.33-.27.6-.6.6h-1.97c-.33,0-.6.27-.6.6v2.4c0,.33.27.6.6.6Z"/>
      </g>
    </g>
  </g>
</svg>