<?xml version="1.0" encoding="UTF-8"?>
<svg id="Layer_2" data-name="Layer 2" xmlns="http://www.w3.org/2000/svg" viewBox="0 0 83.89 60.87">
  <defs>
    <style>
      .cls-1 {
        fill: #264756;
      }

      .cls-2 {
        fill: #4d8293;
      }

      .cls-3 {
        fill: #7c2424;
      }

      .cls-4 {
        fill: #e85454;
      }

      .cls-5 {
        fill: #fff;
      }
    </style>
  </defs>
  <g id="Layer_1-2" data-name="Layer 1">
    <g>
      <path class="cls-5" d="M31.36,16.9c.38,0,.73.04,1.07.1-.34-.06-.69-.1-1.07-.1Z"/>
      <path class="cls-5" d="M32.62,17.03c.33.07.65.16.94.28-.29-.12-.61-.22-.94-.28Z"/>
      <path class="cls-2" d="M24.75,32.37c.06-.03.12-.06.19-.09v.45h0v-.45c-.06.03-.12.06-.19.09-2.14.87-4.49,1.3-7.04,1.3-.77,0-1.52-.05-2.26-.13h0c.74.08,1.48.13,2.26.13,2.55,0,4.9-.43,7.04-1.3Z"/>
      <path class="cls-2" d="M82.53,45.5s-.13.04-.31.04c-.53,0-1.62-.22-3.02-1.8l-16.68-18.61c3.98-5.25,9.41-7.79,13.18-7.79.66,0,1.22.07,1.68.19.2.05.39-.08.44-.29.4-1.9,1.53-3.54,3.13-4.68.25-.18.17-.58-.13-.65-1.61-.38-3.13-.39-3.89-.39-2.28,0-5.17.44-8.19,2.15-4.42,2.5-9.15,7.18-11.56,12.48v-8.98c0-3.15,3.81-.74,3.81-3.28,0-.53-.35-1.01-1.18-1.01h-11.95c-.88,0-1.27.61-1.27,1.18,0,.61.39,1.23,1.14,1.23.09,0,2.54,0,2.54,1.75v26.62c0,1.22-1.18,1.67-1.91,1.84-.49-6.73-6.12-11.17-10.04-11.62,3.84-.54,6.84-3.48,6.84-10.32,0-7.48-4.24-10.21-10.3-10.62-.55-.04-1.11-.06-1.69-.06,0,0-.01,0-.02,0H12.09c-1.08,0-1.68.84-1.68,1.68,0,.78.54,1.56,1.68,1.56,0,0,3.36,0,3.36,2.46v8.69c.71.15,1.46.22,2.26.22,1.51,0,2.86-.28,4.06-.85,1.2-.57,2.2-1.35,3.02-2.34.06-.08.12-.16.17-.23,0,0,0,0,0,0l.02-5.79c0-1.02.42-1.44,1.44-1.44h.91s4.01.06,4.01.06c0,0,0,0,0,0,.38,0,.73.04,1.07.1.06.01.13.02.19.03.33.07.65.16.94.28.02,0,.04.02.05.02,2.57,1.1,3.67,4.13,3.62,7.48,0,3.9-1.74,7.92-6.18,7.92h-1.46c-1.37,1.19-2.91,2.16-4.66,2.89-.06.03-.12.06-.19.09-2.14.87-4.49,1.3-7.04,1.3-.77,0-1.52-.05-2.26-.13v18.18c0,2.4-3.12,2.64-3.12,2.64-1.2,0-1.74.66-1.74,1.44,0,.84.66,1.74,1.74,1.74h22.68c8.16,0,12.68-6.6,13.31-12.97h11.53c.83,0,1.18-.57,1.18-1.18,0-.57-.48-1.18-1.18-1.18,0,0-2.63-.09-2.63-1.93v-9.76c.22-.79.96-2.06,1.44-3.07l10.86,12.39c.44.48.61.88.61,1.18,0,1.88-3.2.44-3.2,2.36,0,.61.57,1.18,1.4,1.18h14.19c.88,0,1.36-.66,1.36-1.31-.04-.53-.44-1.05-1.36-1.09ZM31.53,56.61h-5.28c-.72,0-1.26-.42-1.26-1.38v-18h6.48c5.22,0,7.98,3.84,7.98,8.88.06,5.28-1.14,10.5-7.92,10.5Z"/>
      <path class="cls-4" d="M27.25,18.32c0-.05.01-.11.02-.16,0,.05-.01.11-.02.16Z"/>
      <path class="cls-4" d="M27.34,16.86h0s0-.01,0-.02l4.01.05c1.26,0,2.29.34,3.13.92-.27-.19-.56-.35-.87-.48-.02,0-.04-.02-.05-.02-.29-.12-.61-.22-.94-.28-.06-.01-.13-.02-.19-.03-.34-.06-.69-.1-1.07-.1,0,0,0,0,0,0l-4.01-.05h0s0,0,0,.01h0Z"/>
      <path class="cls-4" d="M24.75,32.37c.06-.03.12-.06.19-.09h0c2.06-.86,3.86-2.03,5.38-3.53,1.57-1.54,2.8-3.33,3.68-5.36.52-1.19.88-2.43,1.09-3.72-.07.39-.15.78-.24,1.16-.89-.77-2.04-1.24-3.5-1.24l-4.3-.05h0c-.1.46-.22.91-.37,1.35-.41,1.18-.98,2.23-1.71,3.17,0,0,0,0,0,0-.06.08-.11.16-.17.23-.82.99-1.83,1.77-3.02,2.34-1.2.57-2.55.85-4.06.85-.8,0-1.55-.08-2.26-.22-.66-.14-1.29-.34-1.88-.6-1.21-.55-2.24-1.31-3.07-2.29-.83-.98-1.46-2.11-1.89-3.4-.42-1.29-.64-2.66-.64-4.11s.21-2.76.64-4.04c.43-1.27,1.06-2.42,1.89-3.42.83-1.01,1.86-1.79,3.07-2.36,1.21-.57,2.59-.85,4.13-.85s2.86.28,4.06.85c1.2.57,2.2,1.34,3.02,2.31.82.98,1.45,2.11,1.89,3.4.01.04.02.08.04.12h6.43s.01,0,.02,0c.58,0,1.14.02,1.69.06h0c-.21-.9-.49-1.79-.86-2.64-.88-2.05-2.11-3.84-3.68-5.38-1.58-1.54-3.43-2.75-5.57-3.61-2.14-.87-4.49-1.3-7.04-1.3s-4.9.43-7.06,1.3c-2.16.87-4.03,2.07-5.62,3.61-1.59,1.54-2.83,3.34-3.71,5.38-.88,2.05-1.32,4.23-1.32,6.56s.44,4.51,1.32,6.54c.88,2.03,2.12,3.82,3.71,5.36,1.59,1.54,3.46,2.75,5.62,3.61,1.5.6,3.11.98,4.8,1.17.74.08,1.48.13,2.26.13,2.55,0,4.9-.43,7.04-1.3Z"/>
      <path class="cls-1" d="M24.75,35.71c.06-.03.12-.06.19-.09,1.75-.73,3.3-1.7,4.66-2.89h0-4.66v-.45c-.06.03-.12.06-.19.09-2.14.87-4.49,1.3-7.04,1.3-.77,0-1.52-.05-2.26-.13h0v3.33h0c.74.08,1.48.13,2.26.13,2.55,0,4.9-.43,7.04-1.3Z"/>
      <path class="cls-3" d="M34.48,17.82c-.83-.58-1.87-.92-3.13-.92l-4.01-.05s0,0,0,.01h0c0,.44-.03.88-.07,1.3,0,.05-.01.11-.02.16-.05.41-.11.82-.2,1.22h0s4.3.05,4.3.05c1.46,0,2.61.48,3.5,1.24.09-.38.17-.77.24-1.16.07-.39.12-.79.16-1.2-.23-.25-.49-.47-.77-.66Z"/>
    </g>
  </g>
</svg>