<?xml version="1.0" encoding="UTF-8"?>
<svg id="Layer_2" data-name="Layer 2" xmlns="http://www.w3.org/2000/svg" viewBox="0 0 2285.06 462.1">
  <defs>
    <style>
      .cls-1 {
        fill: #ffb710;
      }

      .cls-2 {
        fill: #fff;
      }

      .cls-3 {
        fill: #31ffb7;
      }
    </style>
  </defs>
  <g id="Layer_1-2" data-name="Layer 1">
    <g>
      <path class="cls-2" d="M644.09,335.38h-32.6v-97.81h-32.61v97.81h-32.6v-182.59c0-27.06,21.84-48.91,48.91-48.91s48.91,21.84,48.91,48.91v182.59ZM611.49,152.8c0-9.13-7.17-16.3-16.3-16.3s-16.3,7.17-16.3,16.3v52.17h32.61v-52.17Z"/>
      <path class="cls-2" d="M774.51,335.38h-32.6v-182.59c0-9.13-7.17-16.3-16.3-16.3s-16.3,7.17-16.3,16.3v182.59h-32.6v-182.59c0-27.06,21.84-48.91,48.91-48.91s48.91,21.84,48.91,48.91v182.59Z"/>
      <path class="cls-2" d="M852.76,335.38c-27.06,0-48.91-21.85-48.91-48.91v-130.42c0-27.06,21.85-48.91,48.91-48.91h39.13l9.78,32.6h-48.91c-9.13,0-16.3,7.17-16.3,16.3v130.42c0,9.13,7.17,16.3,16.3,16.3h16.3v-97.81h32.61v130.42h-48.91Z"/>
      <path class="cls-2" d="M983.18,107.15c27.06,0,48.91,21.84,48.91,48.91v32.6c0,16.63-8.15,31.3-20.87,40.1,7.5,11.09,20.87,36.19,20.87,74.01v32.61h-32.6v-32.61c0-26.08-13.04-65.21-26.08-65.21h-6.52v97.81h-32.6V107.15h48.91ZM999.48,156.06c0-9.13-7.17-16.3-16.3-16.3h-16.3v65.21h16.3c9.13,0,16.3-7.17,16.3-16.3v-32.6Z"/>
      <path class="cls-2" d="M1091.1,234.96c-19.24-6.85-32.61-24.78-32.61-46.3v-81.51h32.61v81.51c0,9.13,7.17,16.3,16.3,16.3s16.3-7.17,16.3-16.3v-81.51h32.6v81.51c0,21.52-13.69,39.45-32.6,46.3v100.42h-32.6v-100.42Z"/>
      <path class="cls-2" d="M1400.84,335.38h-32.6v-182.59c0-9.13-7.17-16.3-16.3-16.3s-16.3,7.17-16.3,16.3v182.59h-32.6v-182.59c0-9.13-7.83-16.3-16.3-16.3-9.13,0-16.3,7.17-16.3,16.3v182.59h-32.6v-182.59c0-27.06,21.84-48.91,48.91-48.91,12.39,0,23.8,4.89,32.6,12.39,8.48-7.5,19.89-12.39,32.61-12.39,27.06,0,48.91,21.84,48.91,48.91v182.59Z"/>
      <path class="cls-2" d="M1531.26,335.38h-32.6v-97.81h-32.61v97.81h-32.6v-182.59c0-27.06,21.84-48.91,48.91-48.91s48.91,21.84,48.91,48.91v182.59ZM1498.65,152.8c0-9.13-7.17-16.3-16.3-16.3s-16.3,7.17-16.3,16.3v52.17h32.61v-52.17Z"/>
      <path class="cls-2" d="M1563.86,107.15h32.6v195.63h65.21v32.61h-97.81V107.15Z"/>
      <path class="cls-2" d="M1684.49,107.15h32.6v195.63h65.21v32.61h-97.81V107.15Z"/>
      <path class="cls-2" d="M1902.94,335.38h-32.6v-97.81h-32.61v97.81h-32.6v-182.59c0-27.06,21.84-48.91,48.91-48.91s48.91,21.84,48.91,48.91v182.59ZM1870.34,152.8c0-9.13-7.17-16.3-16.3-16.3s-16.3,7.17-16.3,16.3v52.17h32.61v-52.17Z"/>
      <path class="cls-2" d="M1984.45,107.15c27.06,0,48.91,21.84,48.91,48.91v32.6c0,16.63-8.15,31.3-20.87,40.1,7.5,11.09,20.87,36.19,20.87,74.01v32.61h-32.6v-32.61c0-26.08-13.04-65.21-26.08-65.21h-6.52v97.81h-32.6V107.15h48.91ZM2000.76,156.06c0-9.13-7.17-16.3-16.3-16.3h-16.3v65.21h16.3c9.13,0,16.3-7.17,16.3-16.3v-32.6Z"/>
      <path class="cls-2" d="M2160.84,286.48c0,27.06-21.84,48.91-48.91,48.91h-48.91V107.15h48.91c27.06,0,48.91,21.84,48.91,48.91v130.42ZM2128.24,156.06c0-9.13-7.17-16.3-16.3-16.3h-16.3v163.02h16.3c9.13,0,16.3-7.17,16.3-16.3v-130.42Z"/>
      <path class="cls-2" d="M2216.59,175.62c0,34.24,68.47,35.87,68.47,88.03v22.82c0,27.06-21.85,48.91-48.91,48.91h-42.39l-9.78-32.61h52.17c9.13,0,16.3-7.17,16.3-16.3v-19.56c0-34.24-68.47-32.6-68.47-88.03v-22.82c0-27.06,21.85-48.91,48.91-48.91h42.39l9.78,32.6h-52.17c-9.13,0-16.3,7.17-16.3,16.3v19.56Z"/>
    </g>
    <g>
      <g>
        <circle class="cls-1" cx="229.5" cy="231.91" r="226.07"/>
        <path d="M394.43,67.67c-21.21-21.21-45.92-37.87-73.44-49.51C292.5,6.11,262.24,0,231.05,0s-61.45,6.11-89.94,18.16c-27.52,11.64-52.22,28.3-73.44,49.51-21.21,21.21-37.87,45.92-49.51,73.44C6.11,169.61,0,199.87,0,231.05s6.11,61.45,18.16,89.94c11.64,27.52,28.3,52.22,49.51,73.44,21.21,21.21,45.92,37.87,73.44,49.51,28.49,12.05,58.76,18.16,89.94,18.16s61.45-6.11,89.94-18.16c27.52-11.64,52.22-28.3,73.44-49.51,21.21-21.21,37.87-45.92,49.51-73.44,12.05-28.5,18.16-58.75,18.16-89.94s-6.11-61.45-18.16-89.94c-11.64-27.52-28.3-52.22-49.51-73.44ZM15,231.05C15,111.73,111.73,15,231.05,15s216.05,96.73,216.05,216.05-96.73,216.05-216.05,216.05S15,350.37,15,231.05Z"/>
      </g>
      <g>
        <path class="cls-1" d="M270.3,331.74c-4.22-30.36-3.76-44.72-3.56-48.02.05-.77.03-1.53-.1-2.28-.26-1.53-1.13-2.86-1.93-3.79-1.68-1.97-3.13-4.11-4.48-6.31-2.45-4.03-5.87-9.63-7.94-12.98-1.13-1.84-3.63-2.24-5.27-.84-1.45,1.22-3.55,2.94-5.75,4.73-5.96,4.83-14.48,4.83-20.44,0-2.21-1.78-4.31-3.5-5.75-4.73-1.65-1.39-4.14-1-5.27.84-2.05,3.34-5.49,8.96-7.94,13-1.34,2.2-2.79,4.34-4.47,6.3-.8.94-1.67,2.26-1.93,3.79-.13.76-.14,1.52-.1,2.29.2,3.31.66,17.68-3.56,48.02-.32,2.32-.8,4.63-1.47,6.87-1.87,6.29-5.23,23.09,7.81,33.81,4,3.29,8.88,5.36,13.98,6.27,2,.36,4.65.94,7.36,1.85-.75-13.91,2.51-16.67,9.45-28.3.96-1.6,3.27-1.6,4.22,0,0,0,6.45,10.79,6.45,10.79,3.31,4.89,3.03,11.78,2.96,17.52,2.72-.92,5.38-1.5,7.39-1.86,5.11-.91,9.98-2.97,13.98-6.27,13.04-10.73,9.68-27.53,7.81-33.81-.67-2.25-1.14-4.55-1.47-6.87ZM219.76,290.79c-.61.53-1.42,1.23-2.21,1.87-.83.68-2.08.08-2.08-.99v-9.75c1.51.15,3.03.27,4.57.37l.57,6.37c.07.81-.24,1.6-.86,2.14ZM246.62,291.67c0,1.07-1.25,1.67-2.08.99-.78-.64-1.6-1.33-2.21-1.87-.61-.53-.93-1.33-.86-2.14l.57-6.37c1.54-.1,3.06-.22,4.57-.37v9.75Z"/>
        <path class="cls-3" d="M294.73,162.15l-7.13-10.37,20.26,8.9c-12.9-50.98-49.21-96.83-93.07-81.27h0c-27.53,8.9-50.15,39.95-60.52,81.25l20.21-8.87-7.13,10.37c-8.14,3.66-16.05,12.45-16.05,12.45-23.93,26.39-4.88,93.56,29.59,103.34,1.11-5.23,10.53-20.12,16.23-29.78,2.23-4.08,6.03-6.61,10.25-7.64h0s.08-.03.24-.06c1.84-.43,3.75.05,5.23,1.22,5.18,4.09,11.32,6.45,17.89,6.45s12.85-2.42,18.07-6.59c1.47-1.17,3.38-1.66,5.2-1.2.23.06.45.12.68.18h0c4.22,1.03,8.03,3.56,10.26,7.64,5.71,9.67,15.13,24.56,16.24,29.79,22.77-5.34,38.61-40.27,40.02-63.95,1.29-16.7-2.55-31.29-10.43-39.39,0,0-7.91-8.78-16.05-12.45ZM179.31,176.48c.25,2.09,1,3.66,2.03,5.57,3.55,7.11,8.76,19.08,11.79,30-16.77,3.42-24.29-23.91-13.82-35.57ZM217.36,151.68l-5.4-28.41,7.95-2.1,2.93,29.06-5.49,1.45ZM233.85,149.13h-5.59l-1.25-29.28h8.1l-1.25,29.28ZM244.74,151.68l-5.49-1.45,2.93-29.06,7.95,2.1-5.4,28.41ZM268.97,212.05c3.03-10.92,8.24-22.89,11.79-30,1.03-1.91,1.79-3.48,2.03-5.57,10.47,11.66,2.95,39-13.82,35.57Z"/>
        <path d="M252.75,65.42c-55.8-21.07-104.2,39.08-115.46,102.52-8.71,11.4-12.83,28.28-11.36,47.21,1.66,27.7,18.34,62.34,42.65,74.42,2.38,1.18,4.59,2.67,6.71,4.27,1.66,1.25,3.33,2.46,4.92,3.77-.36,6.76-1.15,16.27-2.84,28.95-.4,2.99-.96,5.97-1.84,8.86-5.44,17.88-.76,44.51,23.74,55.33,2.97,1.31,6.15,2.04,9.36,2.46,9.96,1.28,12.57,7.75,22.41,7.77,9.89-.04,12.39-6.46,22.42-7.77,3.28-.43,6.51-1.17,9.53-2.52,24.36-10.93,29.01-37.47,23.57-55.28-.88-2.87-1.44-5.84-1.84-8.82-1.7-12.79-2.5-22.36-2.85-29.12,1.53-1.06,3.05-2.17,4.55-3.32,2.23-1.72,4.56-3.32,7.09-4.58,24.32-12.08,40.98-46.72,42.65-74.42,1.47-18.94-2.64-35.81-11.36-47.21-10.1-51.86-37.44-90.86-72.06-102.52ZM263.95,372.43c-4.01,3.29-8.88,5.36-13.98,6.27-2.01.36-4.67.95-7.39,1.86.07-5.74.35-12.63-2.96-17.52,0,0-6.45-10.79-6.45-10.79-.96-1.6-3.27-1.6-4.22,0-6.94,11.63-10.19,14.39-9.45,28.3-2.71-.91-5.36-1.5-7.36-1.85-5.11-.91-9.98-2.97-13.98-6.27-13.04-10.73-9.68-27.53-7.81-33.81.67-2.25,1.14-4.55,1.47-6.87,4.22-30.34,3.76-44.71,3.56-48.02-.05-.77-.03-1.53.1-2.29.26-1.53,1.13-2.86,1.93-3.79,1.67-1.96,3.12-4.1,4.47-6.3,2.46-4.04,5.89-9.66,7.94-13,1.13-1.84,3.63-2.24,5.27-.84,1.45,1.22,3.55,2.94,5.75,4.73,5.96,4.83,14.48,4.83,20.44,0,2.2-1.78,4.3-3.5,5.75-4.73,1.65-1.39,4.14-1,5.27.84,2.06,3.36,5.48,8.96,7.94,12.98,1.35,2.21,2.8,4.35,4.48,6.31.8.94,1.67,2.26,1.93,3.79.13.76.14,1.52.1,2.28-.2,3.3-.66,17.67,3.56,48.02.32,2.32.8,4.63,1.47,6.87,1.87,6.29,5.23,23.09-7.81,33.81ZM321.21,213.99c-1.41,23.68-17.25,58.61-40.02,63.95-1.11-5.24-10.53-20.13-16.24-29.79-2.23-4.09-6.04-6.61-10.26-7.64h0c-.23-.06-.45-.12-.68-.18-1.82-.46-3.73.03-5.2,1.2-5.22,4.17-11.42,6.59-18.07,6.59s-12.71-2.37-17.89-6.45c-1.48-1.17-3.4-1.65-5.23-1.22-.16.04-.24.06-.24.06h0c-4.21,1.04-8.02,3.56-10.25,7.65-5.7,9.66-15.13,24.55-16.23,29.78-34.48-9.78-53.52-76.95-29.59-103.34,0,0,7.91-8.78,16.05-12.45l7.13-10.37-20.21,8.87c10.37-41.3,32.99-72.35,60.52-81.25h0c43.85-15.56,80.17,30.29,93.07,81.27l-20.26-8.9,7.13,10.37c8.14,3.66,16.05,12.45,16.05,12.45,7.87,8.1,11.72,22.68,10.43,39.39Z"/>
        <polygon points="228.26 149.13 233.85 149.13 235.1 119.85 227 119.85 228.26 149.13"/>
        <polygon points="211.97 123.27 217.36 151.68 222.85 150.23 219.92 121.18 211.97 123.27"/>
        <polygon points="239.25 150.23 244.74 151.68 250.14 123.27 242.19 121.18 239.25 150.23"/>
        <path d="M179.31,176.48c-10.47,11.66-2.95,39,13.82,35.57-3.03-10.92-8.24-22.89-11.79-30-1.03-1.91-1.79-3.48-2.03-5.57Z"/>
        <path d="M280.76,182.05c-3.55,7.11-8.76,19.08-11.79,30,16.77,3.42,24.29-23.91,13.82-35.57-.25,2.09-1,3.66-2.03,5.57Z"/>
        <path d="M215.48,281.92v9.75c0,1.07,1.25,1.67,2.08.99.78-.64,1.6-1.33,2.21-1.87.61-.53.93-1.33.86-2.14l-.57-6.37c-1.54-.1-3.06-.22-4.57-.37Z"/>
        <path d="M241.48,288.65c-.07.81.24,1.6.86,2.14.61.53,1.42,1.23,2.21,1.87.83.68,2.08.08,2.08-.99v-9.75c-1.51.15-3.03.27-4.57.37l-.57,6.37Z"/>
      </g>
    </g>
  </g>
</svg>