<?xml version="1.0" encoding="UTF-8"?>
<svg id="Layer_2" data-name="Layer 2" xmlns="http://www.w3.org/2000/svg" viewBox="0 0 338.91 74.39">
  <defs>
    <style>
      .cls-1 {
        fill: #222821;
      }

      .cls-2 {
        fill: #5766bc;
      }
    </style>
  </defs>
  <g id="Layer_1-2" data-name="Layer 1">
    <g>
      <path class="cls-1" d="M28.34,42.57c-1.3,0-2.43.93-2.63,2.16-.06.41-.16.77-.29,1.06-.23.54-.64.95-1.25,1.25-.68.33-1.69.55-2.98.67-1.36.12-3.13.18-5.28.18-2.52,0-4.54-.1-6-.31-1.35-.19-2.34-.56-2.94-1.1-.58-.53-.97-1.37-1.15-2.48-.2-1.24-.3-2.93-.3-5.01s.1-3.64.3-4.83c.18-1.07.57-1.88,1.15-2.4.6-.53,1.59-.9,2.95-1.1,1.46-.21,3.47-.32,5.99-.32,2.8,0,4.98.11,6.46.34,1.35.2,2.26.59,2.73,1.14.27.33.47.77.58,1.32.25,1.19,1.36,2.06,2.67,2.06.8,0,1.55-.35,2.06-.96.49-.58.69-1.33.57-2.06-.25-1.46-.77-2.65-1.55-3.53-1.14-1.3-2.88-2.16-5.18-2.57-2.18-.39-4.99-.58-8.34-.58-2.8,0-5.22.15-7.19.44-2.05.3-3.73.93-5.01,1.85-1.31.95-2.28,2.36-2.87,4.19-.57,1.76-.85,4.11-.85,7s.29,5.38.85,7.19c.59,1.88,1.55,3.32,2.87,4.27,1.28.93,2.97,1.56,5.02,1.85,1.97.28,4.39.43,7.19.43,2.53,0,4.76-.1,6.61-.31,1.91-.21,3.51-.63,4.76-1.26,1.31-.66,2.31-1.65,2.95-2.95.35-.71.61-1.56.76-2.51.13-.8-.1-1.6-.61-2.21-.5-.59-1.23-.93-2.04-.93Z"/>
      <path class="cls-1" d="M37.86,17.68c-1.53,0-2.77,1.24-2.77,2.77v29.04c0,1.53,1.24,2.77,2.77,2.77s2.77-1.24,2.77-2.77v-29.04c0-1.53-1.24-2.77-2.77-2.77Z"/>
      <path class="cls-1" d="M71.76,28.3c-1.02-1.07-2.51-1.82-4.42-2.22-1.82-.38-4.23-.58-7.18-.58-2.72,0-5,.09-6.8.26-1.85.18-3.34.54-4.43,1.06-1.17.56-2.01,1.4-2.5,2.5-.17.38-.31.81-.42,1.27-.2.84,0,1.71.54,2.39.54.69,1.35,1.08,2.22,1.08,1.28,0,2.4-.85,2.76-2.23.09-.35.13-.5.21-.6.07-.09.34-.21.44-.25.35-.16,1.1-.37,2.62-.48,1.28-.1,3.08-.15,5.36-.15,1.98,0,3.58.07,4.77.22,1.08.13,1.89.43,2.42.87.51.43.87,1.12,1.06,2.06.19.89.3,2.08.35,3.54-1.17-.21-2.45-.36-3.84-.45-1.72-.12-3.88-.17-6.42-.17-3.15,0-5.73.16-7.69.48-2.08.34-3.64,1.12-4.63,2.3-.99,1.18-1.49,3.01-1.49,5.42s.54,4.19,1.59,5.37c1.05,1.17,2.64,1.93,4.73,2.26,1.96.31,4.48.47,7.49.47,2.25,0,4.12-.08,5.57-.23,1.48-.16,2.7-.41,3.61-.74.59-.22,1.08-.49,1.5-.85.48.81,1.37,1.35,2.37,1.35,1.53,0,2.77-1.24,2.77-2.77v-9.9c0-2.78-.17-5.09-.5-6.87-.35-1.87-1.04-3.36-2.06-4.43ZM68.78,44.43c0,.94-.1,1.67-.3,2.16-.15.39-.49.67-1.03.86-.66.23-1.7.38-3.09.44-1.45.06-3.43.09-5.87.09-1.92,0-3.49-.04-4.66-.11-1.1-.07-1.94-.22-2.49-.44-.44-.19-.72-.45-.86-.82-.18-.47-.27-1.13-.27-1.98s.09-1.57.27-2.06c.14-.39.42-.66.87-.86.54-.23,1.38-.39,2.48-.46.85-.06,1.92-.09,3.19-.09.46,0,.95,0,1.46.01l10.29.12v3.14Z"/>
      <path class="cls-1" d="M81.14,17.68c-1.53,0-2.77,1.24-2.77,2.77s1.24,2.77,2.77,2.77,2.77-1.24,2.77-2.77-1.24-2.77-2.77-2.77Z"/>
      <path class="cls-1" d="M81.14,25.98c-1.53,0-2.77,1.24-2.77,2.77v20.74c0,1.53,1.24,2.77,2.77,2.77s2.77-1.24,2.77-2.77v-20.74c0-1.53-1.24-2.77-2.77-2.77Z"/>
      <path class="cls-1" d="M103.09,25.64s-.08-.01-.13-.01c-1.33.03-2.47.08-3.39.17-1.21.11-2.15.36-2.92.56l-.27.07c-1.1.29-2.01.76-2.62,1.15-.44-.94-1.4-1.6-2.51-1.6-1.53,0-2.77,1.24-2.77,2.77v20.74c0,1.53,1.24,2.77,2.77,2.77s2.77-1.24,2.77-2.77v-13.14c0-1.27.07-2.32.21-3.13.11-.67.42-1.18.95-1.55.58-.41,1.6-.72,3.05-.9.59-.08,1.28-.14,2.06-.18l2.8-4.95Z"/>
      <path class="cls-1" d="M164.71,27.79c-1.28-.93-2.96-1.55-5-1.85-1.96-.29-4.38-.44-7.2-.44s-5.22.15-7.19.44c-2.05.3-3.73.93-5.01,1.85-1.31.95-2.28,2.36-2.87,4.19-.57,1.76-.85,4.11-.85,7s.29,5.38.85,7.19c.59,1.88,1.55,3.32,2.87,4.27,1.28.93,2.97,1.56,5.02,1.85,1.97.28,4.39.43,7.19.43s5.24-.14,7.2-.43c2.04-.3,3.73-.92,5.01-1.85,1.31-.96,2.28-2.39,2.87-4.27.57-1.8.85-4.22.85-7.19s-.29-5.24-.85-7c-.59-1.84-1.56-3.25-2.87-4.19ZM162.59,43.99c-.18,1.12-.57,1.95-1.15,2.48-.6.54-1.58.91-2.93,1.1-1.45.2-3.47.31-6.01.31s-4.54-.1-6-.31c-1.35-.19-2.34-.56-2.94-1.1-.58-.53-.97-1.37-1.15-2.48-.2-1.24-.3-2.93-.3-5.01s.1-3.64.3-4.83c.18-1.07.57-1.88,1.15-2.4.6-.53,1.59-.9,2.95-1.1,1.46-.21,3.48-.32,5.99-.32s4.55.11,6.01.32c1.35.2,2.34.56,2.93,1.1.58.52.97,1.32,1.15,2.4.2,1.19.3,2.82.3,4.83s-.1,3.77-.3,5.01Z"/>
      <path class="cls-1" d="M197.09,25.98h-.24c-1.08,0-2.07.63-2.51,1.62l-8.83,19.33-10.59-19.5c-.48-.89-1.41-1.44-2.43-1.44s-1.88.51-2.38,1.36c-.5.85-.52,1.88-.03,2.74l12.64,22.75c-.17.28-.44.7-.73,1.06-.45.57-.96.99-1.51,1.24-.58.26-1.32.42-2.2.48-.56.04-1.21.06-1.95.08-1.31.03-2.38,1.11-2.38,2.41,0,.66.26,1.27.74,1.73.45.44,1.06.68,1.69.68.03,0,.06,0,.09,0,1.52-.06,2.84-.19,3.92-.4,1.53-.3,2.8-.76,3.77-1.38.97-.62,1.8-1.41,2.44-2.35.61-.89,1.22-1.95,1.79-3.14l11.19-23.3c.41-.86.36-1.86-.15-2.67-.51-.81-1.38-1.29-2.34-1.29Z"/>
      <circle class="cls-1" cx="205.9" cy="20.44" r="2.77"/>
      <path class="cls-2" d="M152.5,33.77c-1.33,0-2.41,2.4-2.41,5.34s1.08,5.34,2.41,5.34,2.41-2.4,2.41-5.34-1.08-5.34-2.41-5.34Z"/>
      <path class="cls-1" d="M205.9,25.98c-1.53,0-2.77,1.24-2.77,2.77v20.74c0,1.53,1.24,2.77,2.77,2.77s2.77-1.24,2.77-2.77v-20.74c0-1.53-1.24-2.77-2.77-2.77Z"/>
      <circle class="cls-2" cx="336.15" cy="20.44" r="2.77"/>
      <path class="cls-2" d="M336.15,25.98c-1.53,0-2.77,1.24-2.77,2.77v20.74c0,1.53,1.24,2.77,2.77,2.77s2.77-1.24,2.77-2.77v-20.74c0-1.53-1.24-2.77-2.77-2.77Z"/>
      <path class="cls-1" d="M237.68,26.49c-1.94-.65-4.61-.99-7.92-.99-2.52,0-4.6.15-6.16.43-1.61.29-2.93.75-3.91,1.35-.46.28-.9.61-1.29.96-.23-1.29-1.37-2.27-2.72-2.27-1.53,0-2.77,1.24-2.77,2.77v20.74c0,1.53,1.24,2.77,2.77,2.77s2.77-1.24,2.77-2.77v-12.92c0-1.48.3-2.69.9-3.58.58-.87,1.62-1.53,3.1-1.96,1.57-.46,3.79-.69,6.59-.69,1.84,0,3.38.09,4.57.26,1.1.16,1.96.48,2.57.94.58.44.98,1.09,1.23,1.99.27.97.41,2.29.41,3.92v12.04c0,1.53,1.24,2.77,2.79,2.77s2.77-1.24,2.77-2.77v-12.04c0-3.07-.42-5.5-1.26-7.22-.87-1.79-2.36-3.05-4.41-3.75Z"/>
      <path class="cls-1" d="M267.3,40.02c-1.38,0-2.48,1.09-2.52,2.47-.03.97-.07,1.77-.15,2.4-.1.83-.31,1.44-.63,1.76-.32.32-.85.53-1.6.61-.89.1-2.13.15-3.69.15-1.73,0-3.03-.12-3.87-.34-.69-.19-1.11-.55-1.33-1.13-.27-.71-.4-1.84-.4-3.37v-11.8h12.92c1.32,0,2.4-1.08,2.4-2.4s-1.08-2.4-2.4-2.4h-12.92v-5.53c0-1.53-1.24-2.77-2.77-2.77s-2.77,1.24-2.77,2.77v22.13c0,2.46.37,4.42,1.11,5.82.77,1.46,2.02,2.49,3.71,3.06,1.59.53,3.71.8,6.31.8,2.18,0,3.99-.13,5.38-.38,1.49-.27,2.68-.82,3.54-1.65.85-.83,1.45-2.05,1.77-3.62.22-1.07.36-2.39.42-3.94.03-.69-.23-1.37-.71-1.86-.48-.5-1.12-.78-1.81-.78Z"/>
      <path class="cls-1" d="M284.76,0c-1.16,0-2.11.95-2.11,2.11v70.17c0,1.16.95,2.11,2.11,2.11s2.11-.95,2.11-2.11V2.11c0-1.16-.95-2.11-2.11-2.11Z"/>
      <path class="cls-2" d="M326.76,28.3c-1.02-1.07-2.51-1.82-4.42-2.22-1.82-.38-4.23-.58-7.18-.58-2.72,0-5,.09-6.8.26-1.85.18-3.34.54-4.43,1.06-1.17.56-2.01,1.4-2.5,2.5-.17.38-.31.81-.42,1.27-.2.84,0,1.71.54,2.39.54.69,1.35,1.08,2.22,1.08,1.28,0,2.4-.85,2.76-2.23.09-.35.13-.5.21-.6.07-.09.34-.21.44-.25.35-.16,1.1-.37,2.62-.48,1.28-.1,3.08-.15,5.36-.15,1.98,0,3.58.07,4.77.22,1.08.13,1.89.43,2.42.87.51.43.87,1.12,1.06,2.06.19.89.3,2.08.35,3.54-1.17-.21-2.45-.36-3.84-.45-1.72-.12-3.88-.17-6.42-.17-3.15,0-5.73.16-7.69.48-2.08.34-3.64,1.12-4.63,2.3-.99,1.18-1.49,3.01-1.49,5.42s.54,4.19,1.59,5.37c1.05,1.17,2.64,1.93,4.73,2.26,1.96.31,4.48.47,7.49.47,2.25,0,4.12-.08,5.57-.23,1.48-.16,2.7-.41,3.61-.74.59-.22,1.08-.49,1.5-.85.48.81,1.37,1.35,2.37,1.35,1.53,0,2.77-1.24,2.77-2.77v-9.9c0-2.78-.17-5.09-.5-6.87-.35-1.87-1.04-3.36-2.06-4.43ZM323.79,44.43c0,.94-.1,1.67-.3,2.16-.16.39-.49.67-1.03.86-.66.23-1.7.38-3.09.44-1.45.06-3.43.09-5.87.09-1.92,0-3.49-.04-4.66-.11-1.1-.07-1.94-.22-2.49-.44-.44-.19-.72-.45-.86-.82-.18-.47-.27-1.13-.27-1.98s.09-1.57.27-2.06c.14-.39.42-.66.87-.86.54-.23,1.38-.39,2.48-.46.85-.06,1.92-.09,3.19-.09.46,0,.95,0,1.46.01l10.29.12v3.14Z"/>
      <path class="cls-1" d="M131.83,25.98c-1.03,0-1.97.57-2.44,1.49l-9.94,19.49-9.73-19.47c-.47-.93-1.4-1.51-2.45-1.51h-.25c-.97,0-1.84.49-2.34,1.32-.5.82-.53,1.83-.08,2.68l10.16,19.45c.91,1.74,2.7,2.82,4.66,2.82s3.75-1.08,4.66-2.82l10.16-19.45c.45-.86.42-1.86-.08-2.68-.5-.83-1.37-1.32-2.34-1.32Z"/>
    </g>
  </g>
</svg>