<?xml version="1.0" encoding="UTF-8"?>
<svg id="Layer_2" data-name="Layer 2" xmlns="http://www.w3.org/2000/svg" viewBox="0 0 717.28 165.31">
  <defs>
    <style>
      .cls-1 {
        fill: #fff;
      }
    </style>
  </defs>
  <g id="Layer_1-2" data-name="Layer 1">
    <g>
      <g>
        <path class="cls-1" d="M8.42,122.33c9.74-6.33,20.9-12.73,33.57-15.64,2.18-4.7,4.69-9.79,7.36-14.96,1.19-2.3,2.4-4.61,3.63-6.92,1.13-2.11,2.26-4.2,3.4-6.27,5.85,8.39,11.53,18.18,16.57,29.52,8.83,2.38,17.65,5.95,26.28,9.37-7.64-19.31-28.19-59.99-73.52-87.81-.78-.48-1.73-.56-2.58-.23l-6.22,2.39-5.45,2.09c-.85.33-.93,1.49-.14,1.93,4.73,2.63,17.03,10.24,30.62,24.83.5.53,1,1.08,1.5,1.63-3.78,5.29-7.31,10.55-10.55,15.65-12.62,19.82-21.1,37.18-24.46,44.42Z"/>
        <path class="cls-1" d="M134.31,156.03c-3.69.63-7.52.94-11.38.94-10.2,0-20.85-2.12-32.55-6.48-4.04-1.5-8.12-3.12-12.06-4.69-6.39-2.53-12.99-5.15-19.42-7.28-7.77-2.58-14.49-3.83-20.53-3.83-1.26,0-2.5.06-3.7.17-2.8.26-5.56.8-8.37,1.65-7.63,1.8-14.83,5.01-21.72,8.86,2.41-.71,4.86-1.29,7.36-1.7,18.03-2.99,37.48,6.21,56.46,13.53,14.88,5.74,29.09,9.41,43.18,7.69,11.44-1.39,21.82-5.86,31.87-11.06-1.04.34-2.08.67-3.13.96-1.98.48-3.98.89-6.01,1.24Z"/>
        <path class="cls-1" d="M104.46,54.11c2.98,2.62,6,5.42,9.01,8.4,1.82-3.43,3.56-6.48,5.13-8.96,31.6,23.46,46.5,67.75,46.5,67.75l15.81-7.79c-9.37-23.76-45.53-56.44-58.63-65.48,11.09-15.88,22.03-24.69,26.26-27.76.71-.52.51-1.63-.34-1.86l-7.33-2.01c-.72-.2-1.5-.05-2.09.41-15.06,11.67-26.2,24.97-34.32,37.3Z"/>
        <path class="cls-1" d="M68.89,57.22c1.88-2.95,3.57-5.44,4.97-7.3,8.53,6.36,15.52,13.29,21.24,20.32-2.6,5.12-4.62,9.76-6.16,13.67,3.45,5.56,6.32,10.82,8.69,15.6,1.76-5.44,3.95-11.2,6.33-16.84,10.83,17.51,14.74,33.94,16.1,42.02,7.08,1.9,13.3,2.78,19.21,2.78,2.21,0,4.4-.13,6.52-.39,1.31-.16,2.6-.37,3.89-.62-1.17-3.38-2.56-6.76-4.13-10.13-15.26-32.79-47.57-64.08-64.21-75.58.86-.97,1.71-1.91,2.56-2.82,17.55-18.91,34.22-26.99,39.87-29.36.81-.34.88-1.46.11-1.9l-1.48-.85L113.18.49c-1.03-.59-2.29-.65-3.36-.13-20.14,9.83-38.07,26.54-53.1,44.62,4.4,4.02,8.45,8.12,12.16,12.24Z"/>
        <path class="cls-1" d="M190.09,119.19C110.39,173.03,71.8,71.42,0,139.62c72.99-47.28,99.98,54.9,190.09-20.42Z"/>
      </g>
      <g>
        <g>
          <path class="cls-1" d="M544.83,16.45c.93-1.09.16-2.78-1.29-2.78h-84.37c-.9,0-1.64.71-1.69,1.61l-1.07,23.55c-.04.96.72,1.77,1.69,1.77h1.39c.89,0,1.63-.7,1.69-1.59.25-4.22.92-7.57,2.01-10.04,1.22-2.77,2.86-4.79,4.9-6.06,2.04-1.27,4.41-2.06,7.1-2.39,2.69-.32,5.51-.49,8.45-.49,3.67,0,6.41.1,8.21.3,1.79.21,2.98.6,3.55,1.16.57.58.86,1.35.86,2.32v64.15c0,3.51-.39,6.34-1.16,8.51-.77,2.17-2.34,3.76-4.71,4.77-2.1.91-5.2,1.48-9.3,1.71-.89.05-1.59.79-1.59,1.69v1.59c0,.93.75,1.69,1.69,1.69h47.91c.93,0,1.69-.75,1.69-1.69v-1.59c0-.89-.7-1.63-1.59-1.69-4.02-.23-7.09-.8-9.18-1.71-2.37-1.02-3.92-2.61-4.65-4.77-.73-2.16-1.1-4.99-1.1-8.51V23.82c0-.98.32-1.76.98-2.32.65-.57,2.04-.96,4.17-1.16,2.13-.2,5.27-.3,9.43-.3,4.41,0,8.06.6,10.96,1.78.15.06.27.13.42.19l3.09-3.7c.51-.62,1.04-1.24,1.56-1.85h-.03Z"/>
          <path class="cls-1" d="M654.77,103.01c-2.59-.08-4.32-.39-5.2-.89-1.06-.61-1.8-1.98-2.21-4.1-.32-1.72-.55-4.24-.67-7.59-.13-3.35-.19-8.04-.19-14.08V8.3c0-1.04-.93-1.83-1.95-1.66l-27.59,4.37c-.82.13-1.42.84-1.42,1.66v1.06c0,.92.73,1.66,1.65,1.69,3.51.08,6.18.47,8.02,1.14,2.13.77,3.35,2.02,3.67,3.74.24,1.06.43,3.33.55,6.79.13,3.46.18,7.61.18,12.43v10.41h-.49c-2.28-2.94-5.02-5.01-8.2-6.24-3.18-1.22-6.81-1.83-10.9-1.83-5.87,0-11.16,1.49-15.86,4.47-4.69,2.98-8.39,7.03-11.08,12.18-2.69,5.14-4.04,10.98-4.04,17.5s1.35,12.18,4.04,17.2c2.69,5.01,6.43,8.94,11.2,11.76,4.77,2.82,10.26,4.22,16.47,4.22,4.41,0,8.47-.75,12.18-2.26s6.96-3.77,9.74-6.79h.49v7.26c0,.97.82,1.74,1.79,1.69l19.88-1.15c.89-.05,1.59-.8,1.59-1.69v-1.52c0-.92-.73-1.65-1.65-1.69h-.01ZM629.36,77.57c0,4.17-.27,7.57-.8,10.23-.53,2.65-1.37,4.88-2.51,6.67-1.55,2.37-3.55,4.24-6,5.63-2.45,1.39-5.01,2.08-7.72,2.08-4.73,0-8.36-2.3-10.9-6.92-2.53-4.61-3.8-11.12-3.8-19.52s1.29-14.71,3.85-19.16c2.58-4.45,6.22-6.67,10.96-6.67,2.61,0,5.06.61,7.35,1.83,2.28,1.22,4.17,3.01,5.63,5.39,1.31,2.04,2.28,4.39,2.94,7.03.65,2.65.98,5.53.98,8.63v4.77Z"/>
          <path class="cls-1" d="M673.48,72.64c.12-.83.84-1.43,1.67-1.43h38.09c1.87,0,3.01-.14,3.42-.43.41-.28.61-1.08.61-2.39,0-8.32-2.41-14.83-7.22-19.52-4.82-4.69-11.55-7.03-20.2-7.03-6.86,0-12.94,1.47-18.25,4.41-5.31,2.94-9.44,7-12.43,12.18-2.98,5.18-4.47,11.16-4.47,17.93s1.4,12.14,4.22,17.07c2.82,4.94,6.75,8.79,11.82,11.57,5.06,2.77,10.94,4.17,17.63,4.17,10.6,0,19.53-3.83,26.78-11.5.59-.62.64-1.57.1-2.23l-1.43-1.79c-.59-.73-1.66-.86-2.39-.25-2.78,2.32-5.63,4.16-8.56,5.5-3.39,1.55-6.79,2.32-10.23,2.32-3.92,0-7.33-1.06-10.23-3.18s-5.14-5.12-6.73-9c-1.59-3.87-2.39-8.47-2.39-13.78,0-.98.04-1.79.13-2.45,0-.05.01-.1.02-.16h.03ZM675.14,62.26c.94-3.56,2.56-6.55,4.86-8.98,2.73-2.9,5.85-4.34,9.37-4.34,3.1,0,5.67,1.14,7.72,3.42,2.04,2.28,3.06,5.22,3.06,8.81,0,1.39-.45,2.26-1.35,2.63-.9.37-3.01.55-6.36.55h-15.64c-1.1,0-1.93-1.04-1.64-2.09Z"/>
          <path class="cls-1" d="M274.83,80.87h-1.57c-.79,0-1.46.54-1.63,1.32-1.08,4.73-2.52,8.47-4.32,11.21-1.97,2.99-4.74,5.08-8.33,6.26-3.58,1.18-8.37,1.77-14.35,1.77-5.05,0-9.04-.41-12-1.25-2.95-.83-5.07-2.23-6.32-4.2-1.26-1.97-1.89-4.65-1.89-8.04v-22.64c0-.94.77-1.7,1.71-1.69,4.18.03,7.58.19,10.23.47,2.99.31,5.32.92,6.97,1.83,1.65.91,2.9,2.3,3.73,4.2.7,1.61,1.28,3.71,1.73,6.29.14.81.85,1.39,1.66,1.39h1.25c.93,0,1.69-.75,1.69-1.69v-31.25c0-.93-.75-1.69-1.69-1.69h-1.18c-.85,0-1.56.63-1.67,1.47-.32,2.48-.8,4.53-1.42,6.16-.75,1.93-1.97,3.39-3.66,4.38-1.7.98-4.07,1.63-7.15,1.95-2.72.28-6.21.43-10.46.47-.94,0-1.71-.75-1.71-1.69v-28.32c0-1.89.25-3.09.76-3.6.51-.51,1.75-.76,3.73-.76h13.36c5.59,0,10.03.49,13.29,1.48,3.27.98,5.73,2.7,7.38,5.14,1.48,2.18,2.54,5.15,3.2,8.91.14.8.85,1.37,1.65,1.37h1.89c.95,0,1.73-.8,1.69-1.75l-.71-19.78c-.03-.91-.77-1.63-1.69-1.63h-71.36c-.93,0-1.69.75-1.69,1.69v1.47c0,.88.68,1.6,1.55,1.69,2.39.21,4.23.61,5.54,1.19,1.57.71,2.64,1.99,3.19,3.84.54,1.85.83,4.63.83,8.33v54.59c0,3.71-.29,6.5-.89,8.39-.59,1.89-1.77,3.17-3.55,3.84-1.5.57-3.63.95-6.4,1.15-.88.06-1.58.8-1.58,1.69v1.44c0,.93.75,1.69,1.69,1.69h76.86c.89,0,1.62-.69,1.69-1.57l1.65-23.68c.07-.97-.7-1.81-1.69-1.81v-.02Z"/>
          <path class="cls-1" d="M333.76,52.04c.87-.79,1.79-1.32,2.77-1.59.51-.15,1.06-.25,1.6-.32.86-.1,1.53-.81,1.53-1.67v-1.46c0-.93-.75-1.69-1.69-1.69h-22.74c-.93,0-1.69.75-1.69,1.69v1.43c0,.89.69,1.61,1.58,1.69,2.17.17,3.73.58,4.69,1.21,1.18.79,1.77,2.05,1.77,3.78,0,.87-.16,1.83-.47,2.9-.31,1.07-.75,2.26-1.3,3.6l-12.65,30.84h-.47l-11.22-30.96c-.55-1.34-1.03-2.68-1.41-4.02-.4-1.34-.59-2.52-.59-3.55,0-.87.18-1.59.53-2.19.36-.59,1.14-1.03,2.37-1.3.94-.21,2.3-.35,4.07-.39.92-.02,1.65-.76,1.65-1.69v-1.37c0-.93-.75-1.69-1.69-1.69h-31.95c-.93,0-1.69.75-1.69,1.69v1.42c0,.89.69,1.6,1.57,1.69,1.13.1,2.13.31,2.97.64,1.22.47,2.32,1.46,3.31,2.95.98,1.5,2.07,3.78,3.25,6.86l18.26,47.48c.25.65.88,1.08,1.58,1.08h8.49c.67,0,1.28-.4,1.55-1l21.65-49.1c.55-1.18,1.07-2.21,1.54-3.07.47-.87.94-1.63,1.42-2.3.47-.67.94-1.2,1.41-1.59h-.03Z"/>
          <path class="cls-1" d="M365.43,44.12c-6.62,0-12.49,1.41-17.61,4.25-5.12,2.84-9.12,6.75-12,11.76-2.88,5-4.31,10.77-4.31,17.31s1.36,11.71,4.07,16.49c2.72,4.76,6.52,8.49,11.4,11.17,4.89,2.68,10.55,4.02,17.02,4.02,10.23,0,18.84-3.7,25.85-11.11.58-.61.6-1.55.07-2.2l-1.31-1.63c-.59-.73-1.66-.86-2.39-.25-2.67,2.22-5.41,3.98-8.23,5.27-3.27,1.5-6.55,2.24-9.87,2.24-3.78,0-7.07-1.03-9.87-3.07-2.8-2.05-4.96-4.94-6.5-8.69-1.54-3.74-2.3-8.18-2.3-13.29,0-.94.04-1.73.12-2.37,0-.03,0-.06.01-.09.1-.83.84-1.44,1.67-1.44h36.72c1.81,0,2.91-.14,3.31-.42.4-.27.59-1.05.59-2.3,0-8.04-2.32-14.32-6.97-18.84-4.65-4.53-11.15-6.79-19.5-6.79h.03ZM374.05,65.34c-.87.36-2.92.53-6.14.53h-15.02c-1.1,0-1.93-1.04-1.64-2.09.91-3.4,2.47-6.27,4.67-8.6,2.64-2.8,5.65-4.2,9.04-4.2,2.99,0,5.47,1.1,7.44,3.31,1.97,2.21,2.95,5.05,2.95,8.51,0,1.34-.43,2.19-1.3,2.54Z"/>
          <path class="cls-1" d="M471.8,103.06c-2.24-.25-3.97-.64-5.16-1.16-1.46-.63-2.39-1.93-2.77-3.9-.4-1.97-.59-5.08-.59-9.34v-16.67c0-5.04-.51-9-1.54-11.87-1.03-2.88-2.21-5.21-3.55-7.03-2.44-3.23-5.22-5.54-8.33-6.91-3.11-1.38-7.19-2.07-12.23-2.07-4.18,0-8.05.93-11.64,2.77-3.59,1.85-6.68,4.4-9.27,7.62h-.47l-1.28-8.65c-.14-.95-1.05-1.6-2-1.41l-19.7,3.88c-.8.16-1.36.85-1.36,1.65v.96c0,.92.73,1.66,1.65,1.69,2.73.08,4.67.4,5.79.92,1.34.63,2.24,1.97,2.72,4.02.24,1.03.43,2.97.59,5.85.16,2.88.24,6.64.24,11.28v14.77c0,3.94-.24,6.86-.71,8.74-.47,1.89-1.46,3.13-2.95,3.73-1.24.49-3.01.86-5.33,1.1-.86.09-1.52.82-1.52,1.67v1.5c0,.93.75,1.69,1.69,1.69h33.84c.93,0,1.69-.75,1.69-1.69v-1.5c0-.87-.66-1.59-1.52-1.67-2.39-.25-4.18-.64-5.39-1.16-1.46-.63-2.39-1.93-2.77-3.9-.4-1.97-.59-5.08-.59-9.34v-16.31c0-1.65.12-3.25.36-4.78.24-1.54.55-2.97.94-4.31.4-1.34.83-2.48,1.3-3.42,1.34-2.52,2.91-4.49,4.73-5.9,1.81-1.41,3.98-2.13,6.5-2.13,5.12,0,8.69,1.59,10.7,4.78,2.01,3.19,3.01,8.8,3.01,16.84v16.07c0,3.86-.24,6.75-.71,8.69-.47,1.94-1.43,3.21-2.9,3.84-1.2.52-2.99.88-5.35,1.08-.88.07-1.56.81-1.56,1.69v1.46c0,.93.75,1.69,1.69,1.69h33.6c.93,0,1.69-.75,1.69-1.69v-1.51c0-.86-.66-1.58-1.51-1.67l-.02.02Z"/>
          <path class="cls-1" d="M578.34,102.93c-2.34-.21-4.15-.61-5.43-1.17-1.55-.69-2.55-2.1-2.99-4.22-.45-2.13-.67-5.35-.67-9.67v-44.04c0-1.05-.93-1.83-1.97-1.66l-25.02,4.1c-.82.14-1.41.84-1.41,1.66v1.07c0,.92.73,1.66,1.65,1.69,2.87.08,4.91.41,6.12.95,1.42.65,2.34,2,2.75,4.04.24,1.06.45,3.14.61,6.24.17,3.1.24,7.02.24,11.76v15.05c0,3.84-.26,6.75-.8,8.75-.53,2-1.57,3.39-3.12,4.17-1.29.64-3.1,1.08-5.44,1.3-.87.08-1.54.81-1.54,1.67v1.64c0,.93.75,1.69,1.69,1.69h35.18c.93,0,1.69-.75,1.69-1.69v-1.63c0-.88-.68-1.6-1.55-1.69h.01Z"/>
          <path class="cls-1" d="M557.01,36.06c.77.99,1.56,2.03,2.36,3.11.31.43.97.4,1.24-.07,2.83-4.97,6.23-10.12,10.35-15.41.58-.73,1.14-1.44,1.71-2.15.2-.25.22-.61.04-.88-1.82-2.73-3.65-5.24-5.42-7.52-1.18-1.52-2.37-2.96-3.53-4.34-.26-.31-.73-.35-1.05-.07-3.5,3.07-9.15,8.41-15.06,15.55-.24.29-.23.71.03.98,2.92,3.07,6.11,6.68,9.34,10.8h0Z"/>
        </g>
        <g>
          <path class="cls-1" d="M236.69,125.53c1.82,0,3.5.32,5.07.96,1.56.64,2.93,1.54,4.11,2.69,1.18,1.15,2.1,2.49,2.75,4.03.66,1.54.98,3.2.98,4.99s-.33,3.31-1,4.8c-.67,1.49-1.59,2.8-2.77,3.92-1.18,1.12-2.55,1.99-4.11,2.62-1.56.63-3.24.95-5.04.95s-3.47-.32-5.04-.95c-1.56-.63-2.93-1.51-4.11-2.62-1.18-1.12-2.1-2.42-2.77-3.92-.67-1.5-1-3.1-1-4.8,0-1.79.33-3.45.98-4.99.66-1.54,1.57-2.88,2.75-4.03,1.18-1.15,2.55-2.04,4.11-2.69s3.25-.96,5.07-.96ZM236.69,148.44c1.57,0,2.93-.41,4.07-1.23,1.14-.82,2.02-2,2.65-3.52.62-1.53.94-3.32.94-5.39,0-2.19-.31-4.08-.92-5.69-.62-1.6-1.5-2.84-2.65-3.71-1.15-.87-2.51-1.31-4.08-1.31s-2.93.44-4.07,1.31c-1.14.88-2.02,2.11-2.65,3.71-.63,1.6-.94,3.5-.94,5.69,0,2.06.31,3.86.94,5.39.62,1.53,1.51,2.7,2.65,3.52,1.14.82,2.5,1.23,4.07,1.23Z"/>
          <path class="cls-1" d="M300.84,133.68v6.7c0,2.38-.34,4.31-1.01,5.8s-1.73,2.57-3.16,3.27c-1.43.7-3.31,1.04-5.63,1.04-2.16,0-3.93-.31-5.33-.93-1.39-.62-2.42-1.6-3.07-2.92-.66-1.33-.98-3.02-.98-5.09v-8.65c0-1.1-.02-1.97-.05-2.62s-.09-1.16-.17-1.53c-.08-.37-.19-.66-.33-.87-.18-.29-.44-.5-.79-.6-.34-.1-.87-.16-1.57-.16v-1.26h10.86v1.26c-.85,0-1.47.05-1.88.14-.4.1-.72.28-.94.55-.26.34-.44.86-.54,1.56s-.15,1.88-.15,3.52v8.28c0,2.38.49,4.15,1.48,5.31.99,1.16,2.49,1.74,4.51,1.74s3.66-.6,4.69-1.8c1.03-1.2,1.54-3.01,1.54-5.43v-7.3c0-1.75-.06-3.04-.18-3.87-.12-.83-.35-1.45-.7-1.85-.26-.29-.62-.51-1.07-.65-.45-.14-1.07-.21-1.86-.21v-1.26h9.8v1.26c-.75,0-1.32.06-1.72.17-.4.12-.72.32-.94.62-.3.4-.51,1.03-.64,1.88-.12.85-.18,2.15-.18,3.9Z"/>
          <path class="cls-1" d="M356.15,125.85l.3,6.95h-1.3c-.08-1.39-.32-2.47-.71-3.24-.39-.77-.95-1.3-1.66-1.61-.72-.3-1.62-.46-2.71-.46-1.03,0-1.81.03-2.33.08s-.87.15-1.03.3c-.16.15-.24.35-.24.6v16.55c0,.9.09,1.64.27,2.2s.56.97,1.15,1.23,1.47.42,2.66.46v1.26h-12.68v-1.26c1.21-.04,2.11-.19,2.69-.46s.97-.67,1.17-1.23c.19-.56.29-1.29.29-2.2v-16.55c0-.25-.07-.45-.21-.6-.14-.15-.43-.25-.88-.3-.44-.05-1.12-.08-2.03-.08-.73,0-1.42.04-2.09.12-.67.09-1.25.29-1.75.62s-.91.85-1.21,1.56c-.3.72-.47,1.72-.51,3h-1.18l.3-6.95h23.69Z"/>
          <path class="cls-1" d="M385.1,150.17v-1.26c.91-.04,1.59-.15,2.04-.33.45-.18.76-.52.91-1.03s.23-1.25.23-2.24v-14.6c0-.99-.07-1.73-.21-2.23-.14-.49-.41-.84-.82-1.03s-1.01-.3-1.82-.35v-1.26h18.52l.36,6.66h-1.27c-.16-1.2-.43-2.16-.8-2.87-.37-.72-.94-1.23-1.69-1.55-.76-.32-1.79-.47-3.1-.47h-4.18c-.36,0-.54.18-.54.54v9.13c1.63,0,2.88-.11,3.75-.32s1.48-.61,1.85-1.2c.36-.59.59-1.45.7-2.59h1.12v9.89h-1.12c-.12-.88-.3-1.6-.53-2.13-.23-.54-.57-.95-1.01-1.23-.44-.28-1.05-.48-1.82-.58-.77-.11-1.75-.16-2.94-.16v6.13c0,1.07.1,1.88.3,2.42.2.54.62.9,1.26,1.07.63.18,1.59.29,2.86.33v1.26h-12.04Z"/>
          <path class="cls-1" d="M433.21,150.17v-1.26c.91-.04,1.59-.17,2.04-.38s.76-.63.91-1.26c.15-.63.23-1.6.23-2.91v-12.7c0-1.2-.07-2.12-.2-2.75-.13-.63-.4-1.08-.82-1.34-.41-.26-1.03-.42-1.86-.46v-1.26h10.2v1.26c-.83.04-1.45.19-1.86.46s-.69.71-.82,1.34c-.13.63-.2,1.55-.2,2.75v12.7c0,1.31.08,2.28.23,2.91.15.63.45,1.05.91,1.26s1.13.34,2.04.38v1.26h-10.8Z"/>
          <path class="cls-1" d="M496.69,125.85l.3,6.95h-1.3c-.08-1.39-.32-2.47-.71-3.24-.39-.77-.95-1.3-1.66-1.61-.72-.3-1.62-.46-2.71-.46-1.03,0-1.81.03-2.33.08s-.87.15-1.03.3c-.16.15-.24.35-.24.6v16.55c0,.9.09,1.64.27,2.2s.56.97,1.15,1.23,1.47.42,2.66.46v1.26h-12.68v-1.26c1.21-.04,2.11-.19,2.69-.46s.97-.67,1.17-1.23c.19-.56.29-1.29.29-2.2v-16.55c0-.25-.07-.45-.21-.6-.14-.15-.43-.25-.88-.3-.44-.05-1.12-.08-2.03-.08-.73,0-1.42.04-2.09.12-.67.09-1.25.29-1.75.62s-.91.85-1.21,1.56c-.3.72-.47,1.72-.51,3h-1.18l.3-6.95h23.69Z"/>
          <path class="cls-1" d="M548.94,125.85l.3,6.95h-1.3c-.08-1.39-.32-2.47-.71-3.24-.39-.77-.95-1.3-1.66-1.61-.72-.3-1.62-.46-2.71-.46-1.03,0-1.81.03-2.33.08s-.87.15-1.03.3c-.16.15-.24.35-.24.6v16.55c0,.9.09,1.64.27,2.2s.56.97,1.15,1.23,1.47.42,2.66.46v1.26h-12.68v-1.26c1.21-.04,2.11-.19,2.69-.46s.97-.67,1.17-1.23c.19-.56.29-1.29.29-2.2v-16.55c0-.25-.07-.45-.21-.6-.14-.15-.43-.25-.88-.3-.44-.05-1.12-.08-2.03-.08-.73,0-1.42.04-2.09.12-.67.09-1.25.29-1.75.62s-.91.85-1.21,1.56c-.3.72-.47,1.72-.51,3h-1.18l.3-6.95h23.69Z"/>
          <path class="cls-1" d="M585.53,128.69v8.03c1.29,0,2.33-.04,3.12-.13.79-.08,1.4-.26,1.83-.52s.75-.65.94-1.17.33-1.2.41-2.04h1.12v9.26h-1.12c-.12-.86-.29-1.55-.5-2.05-.21-.51-.53-.88-.95-1.12-.42-.24-1.02-.4-1.79-.49-.77-.08-1.79-.12-3.06-.12v6.51c0,.9.16,1.62.48,2.15.32.53.86.9,1.62,1.12.76.22,1.78.33,3.07.33,1.53,0,2.76-.16,3.68-.47.92-.32,1.63-.87,2.13-1.67s.9-1.92,1.18-3.35h1.21l-.48,7.23h-20.51v-1.26c.91-.04,1.59-.15,2.04-.33.45-.18.76-.52.91-1.03s.23-1.25.23-2.24v-14.6c0-.99-.07-1.73-.21-2.23-.14-.49-.41-.84-.82-1.03s-1.01-.3-1.82-.35v-1.26h19.12l.21,6.19h-1.3c-.16-1.18-.45-2.1-.88-2.75-.42-.65-1.05-1.11-1.89-1.38s-1.97-.39-3.4-.39h-3.42c-.5,0-.82.07-.95.21-.13.14-.2.46-.2.96Z"/>
          <path class="cls-1" d="M648.22,131.94c0,1.75-.48,3.21-1.45,4.39-.97,1.18-2.51,1.97-4.63,2.37l7.02,8.4c.48.59,1.06,1.04,1.72,1.34.67.3,1.34.46,2.03.46v1.26h-7.17l-7.5-9.6c-.32-.42-.63-.75-.91-.98-.28-.23-.54-.4-.77-.49-.23-.1-.46-.14-.68-.14v6.19c0,1.03.1,1.82.3,2.37.2.55.62.92,1.24,1.11s1.57.28,2.84.28v1.26h-12.01v-1.26c.89,0,1.56-.09,2.01-.28s.76-.54.92-1.06c.16-.52.24-1.27.24-2.26v-14.6c0-.99-.07-1.73-.2-2.23-.13-.49-.4-.84-.8-1.03s-1.02-.3-1.85-.35v-1.26h10.47c2.91,0,5.16.54,6.76,1.61s2.41,2.57,2.41,4.49ZM635.87,128.15v8.91h1.97c1.9,0,3.31-.39,4.25-1.17.94-.78,1.41-2.04,1.41-3.79,0-1.35-.39-2.43-1.18-3.25-.79-.82-1.88-1.23-3.27-1.23h-2.63c-.36,0-.54.18-.54.54Z"/>
          <path class="cls-1" d="M681.17,150.17l-.45-8.05h1.18c.28,1.98,1.05,3.55,2.31,4.71s2.8,1.74,4.62,1.74c1.51,0,2.73-.36,3.66-1.09s1.39-1.67,1.39-2.83c0-.67-.15-1.24-.44-1.71s-.85-.92-1.66-1.37-2.01-.98-3.59-1.6c-1.55-.63-2.84-1.33-3.87-2.09-1.03-.76-1.79-1.61-2.3-2.56s-.76-1.98-.76-3.1c0-1.33.32-2.49.95-3.49.63-1,1.51-1.79,2.63-2.36,1.12-.57,2.42-.85,3.89-.85,2,0,3.86.67,5.6,2.02l.54-1.58h.73l.33,6.82h-1.18c-.48-1.73-1.24-3.05-2.27-3.96s-2.22-1.38-3.57-1.38c-1.23,0-2.24.32-3.03.96s-1.18,1.47-1.18,2.48c0,.59.13,1.1.41,1.53.27.43.78.85,1.53,1.26s1.82.89,3.21,1.44c1.88.74,3.4,1.51,4.57,2.32s2.02,1.69,2.56,2.62c.53.94.8,2,.8,3.18,0,1.41-.38,2.66-1.15,3.76-.77,1.1-1.82,1.95-3.18,2.56s-2.92.92-4.69.92c-1.19,0-2.28-.17-3.27-.52s-1.99-.91-2.99-1.69l-.61,1.89h-.73Z"/>
        </g>
      </g>
    </g>
  </g>
</svg>