<?xml version="1.0" encoding="UTF-8"?>
<svg id="Layer_2" data-name="Layer 2" xmlns="http://www.w3.org/2000/svg" viewBox="0 0 51.83 39.42">
  <defs>
    <style>
      .cls-1 {
        fill: #231f20;
      }
    </style>
  </defs>
  <g id="Layer_1-2" data-name="Layer 1">
    <g>
      <path class="cls-1" d="M4.18,9.88c.69.7.67,1.77-.03,2.46l-.99.97,1.81,1.84-.71.7L0,11.53l1.69-1.67c.7-.69,1.8-.67,2.48.03ZM3.49,10.57c-.37-.37-.89-.34-1.27.03l-.89.87,1.21,1.23.89-.87c.38-.37.43-.88.05-1.26Z"/>
      <path class="cls-1" d="M10.36,9.22l-2.07,1.37.35,1.31-.89.59-1.52-6.27.92-.61,5.18,3.85-.89.59-1.07-.83ZM9.65,8.66l-2.36-1.84.77,2.89,1.59-1.05Z"/>
      <path class="cls-1" d="M11.12,3.33l1.69-.67c1.56-.62,3.32.15,3.94,1.71s-.15,3.32-1.71,3.94l-1.69.67-2.22-5.65ZM14.7,7.45c1.07-.42,1.58-1.59,1.14-2.72s-1.61-1.64-2.69-1.21l-.78.31,1.55,3.93.78-.31Z"/>
      <path class="cls-1" d="M18.39.84l.97-.21,1.28,5.93-.97.21-1.28-5.93Z"/>
      <path class="cls-1" d="M25.87,4.76l-2.47.14-.36,1.31-1.07.06L23.81.09l1.1-.06,2.55,5.93-1.07.06-.51-1.26ZM25.54,3.91l-1.11-2.77-.79,2.88,1.9-.11Z"/>
      <path class="cls-1" d="M34.8.86l-.98,5.99-.98-.16-2.58-5-.73,4.45-.98-.16.98-5.99.98.16,2.6,4.99.73-4.44.97.16Z"/>
      <path class="cls-1" d="M36.58,4.47c.69-1.58,2.53-2.3,4.1-1.61s2.3,2.52,1.61,4.1-2.53,2.3-4.1,1.61-2.3-2.53-1.61-4.1ZM41.39,6.57c.48-1.11,0-2.33-1.1-2.81-1.1-.48-2.33,0-2.81,1.1-.48,1.1,0,2.33,1.1,2.81,1.1.48,2.33,0,2.81-1.1Z"/>
      <path class="cls-1" d="M46.03,5.82l.75.5-1.43,1.93-.56-.38,1.25-2.05Z"/>
      <path class="cls-1" d="M45.56,11.36l.98.19c-.19.53-.07,1.09.39,1.5.42.38.92.44,1.26.07.86-.96-1.6-2.51-.26-4,.73-.81,1.77-.68,2.48-.04.53.48.78,1.16.75,1.77h-.95c.03-.43-.12-.81-.42-1.08-.33-.3-.76-.38-1.08-.03-.83.92,1.65,2.46.21,4.06-.73.81-1.83.7-2.64-.04-.72-.65-.96-1.59-.72-2.39Z"/>
      <path class="cls-1" d="M12.25,15.19l-.3.12,1.09,2.65-.92.38-2.32-5.61.92-.38.88,2.14.32-.13,1.15-2.98,1.21-.5-1.44,3.57,3.94,1.96-1.24.51-3.3-1.74Z"/>
      <path class="cls-1" d="M16.61,10.41l.96-.23,1.41,5.9-.96.23-1.41-5.9Z"/>
      <path class="cls-1" d="M24.07,10.2l-1.6.16.5,5.12-.98.1-.5-5.12-1.6.16-.09-.92,4.18-.41.09.92Z"/>
      <path class="cls-1" d="M25.99,12.25c.18-1.71,1.71-2.95,3.42-2.78,1.18.12,2.13.88,2.55,1.9l-.89.37c-.28-.7-.94-1.21-1.76-1.29-1.19-.12-2.22.71-2.34,1.9-.12,1.2.72,2.22,1.9,2.34.81.08,1.56-.27,1.99-.9l.8.54c-.62.91-1.71,1.46-2.88,1.34-1.71-.18-2.96-1.71-2.78-3.42Z"/>
      <path class="cls-1" d="M39.51,12.13l-2.01,5.73-.94-.33.85-2.44-2.74-.96-.85,2.44-.94-.33,2.01-5.73.94.33-.85,2.43,2.74.96.85-2.43.94.33Z"/>
      <path class="cls-1" d="M42.79,14.82l-.86,1.44,1.85,1.11-.47.78-1.85-1.11-.87,1.44,2.13,1.28-.46.77-2.98-1.79,3.12-5.21,2.98,1.79-.46.77-2.13-1.28Z"/>
      <path class="cls-1" d="M51.79,20.74l-4.14,4.44-.72-.68.62-5.59-3.08,3.3-.72-.68,4.14-4.44.72.68-.61,5.59,3.07-3.29.72.67Z"/>
      <path class="cls-1" d="M39.19,25.36c.1.1.23.1.33,0,.11-.11.11-.24,0-.35-.1-.1-.22-.09-.32,0-.11.12-.11.24,0,.35M37.95,24.74c-.6,0-1.19.07-1.78.19-1.87.37-3.58,1.15-5.27,1.99-1.2.6-2.39,1.2-3.69,1.55-.34.09-.68.17-1.01.26-.15.04-.3.11-.26.3.04.2.2.22.37.2.07-.01.15-.02.22-.04.81-.2,1.6-.44,2.37-.75,1.3-.54,2.52-1.24,3.8-1.8,1.36-.59,2.74-1.12,4.22-1.31.36-.05.73-.08,1.09-.07.13,0,.25-.04.31-.17.04-.1.02-.2-.1-.3-.06-.06-.17-.06-.27-.05ZM10.05,30.82c-1.21-1.1-2.98-2.98-4.55-5.05-.58-.77-1.17-1.53-1.56-2.42-.16-.35-.23-.73-.21-1.12.04-.71.53-1.13,1.24-1.03.43.06.81.25,1.17.48,1.06.66,2.06,1.4,3.09,2.11,2.96,2.07,6.2,3.41,9.78,3.93,3.07.44,6.01,0,8.86-1.19,1.59-.67,3.13-1.47,4.72-2.13,1.75-.73,3.54-1.2,5.45-1.07,1.07.08,2.08.36,2.9,1.11.83.75,1.06,1.82.61,2.84-.24.56-.5,1.11-.71,1.67-.41,1.14-.21,1.96.69,2.76.26.23.31.37.18.52-.12.14-.29.12-.53-.12-.7-.69-1.21-1.46-1.06-2.51.08-.57.32-1.1.54-1.63.12-.28.25-.56.37-.84.41-.95.17-1.85-.66-2.47-.71-.53-1.52-.74-2.38-.8-1.62-.11-3.17.23-4.68.81-1.44.55-2.81,1.25-4.2,1.89-2.13.98-4.34,1.67-6.7,1.83-1.9.12-3.76-.12-5.61-.55-2.82-.66-5.36-1.89-7.74-3.51-1.11-.75-2.17-1.56-3.32-2.26-.25-.16-.52-.29-.82-.34-.43-.07-.67.12-.68.56-.02.55.2,1.02.49,1.47.99,1.56,2.15,3,3.4,4.35,1.19,1.29,2.42,2.54,3.81,3.62,1.73,1.35,3.66,2.34,5.68,3.18,2.57,1.06,5.21,1.91,7.95,2.41,2.18.4,4.37.78,6.61.7,2.09-.07,4.13-.38,6.04-1.33,1.3-.65,2.49-1.43,3.38-2.61.65-.86,1.06-1.82,1.14-2.91.05-.66.34-.96,1.01-1.06.82-.12,1.64-.07,2.47-.09,0,0,.33.04.75-.02.07,0,.19-.03.35-.08.08-.03.19-.07.31-.16.14-.1.21-.2.29-.32.1-.14.15-.26.18-.39.01-.08.01-.12-.02-.16-.04-.05-.11-.04-.19-.03-.25.02-.37.04-.39.04-.41.08-1.65.24-2.31.31-.52.05-.88.05-1.29-.03-.43-.08-.78-.28-1.04-.63-.19-.25-.38-.5-.61-.72-.12-.12-.19-.27-.04-.41.15-.13.3-.06.42.06.21.19.39.41.55.64.27.41.66.57,1.12.59.65.04,1.29-.06,1.94-.13.63-.07,1.25-.14,1.88-.21.32-.03.48.13.46.46-.07.96-.86,1.71-1.82,1.73-.87.01-1.75,0-2.62.05-.04,0-.08,0-.12,0-.63.08-.7.15-.76.78-.15,1.48-.82,2.71-1.87,3.73-1.78,1.73-3.94,2.7-6.36,3.14-2.41.44-4.81.3-7.22-.04-3.75-.52-7.36-1.55-10.84-3.03-2.24-.96-4.35-2.15-6.91-4.38Z"/>
      <path class="cls-1" d="M39.19,25.36c.1.1.23.1.33,0,.11-.11.11-.24,0-.35-.1-.1-.22-.09-.32,0-.11.12-.11.24,0,.35M37.95,24.74c-.6,0-1.19.07-1.78.19-1.87.37-3.58,1.15-5.27,1.99-1.2.6-2.39,1.2-3.69,1.55-.34.09-.68.17-1.01.26-.15.04-.3.11-.26.3.04.2.2.22.37.2.07-.01.15-.02.22-.04.81-.2,1.6-.44,2.37-.75,1.3-.54,2.52-1.24,3.8-1.8,1.36-.59,2.74-1.12,4.22-1.31.36-.05.73-.08,1.09-.07.13,0,.25-.04.31-.17.04-.1.02-.2-.1-.3-.06-.06-.17-.06-.27-.05ZM10.05,30.82c-1.21-1.1-2.98-2.98-4.55-5.05-.58-.77-1.17-1.53-1.56-2.42-.16-.35-.23-.73-.21-1.12.04-.71.53-1.13,1.24-1.03.43.06.81.25,1.17.48,1.06.66,2.06,1.4,3.09,2.11,2.96,2.07,6.2,3.41,9.78,3.93,3.07.44,6.01,0,8.86-1.19,1.59-.67,3.13-1.47,4.72-2.13,1.75-.73,3.54-1.2,5.45-1.07,1.07.08,2.08.36,2.9,1.11.83.75,1.06,1.82.61,2.84-.24.56-.5,1.11-.71,1.67-.41,1.14-.21,1.96.69,2.76.26.23.31.37.18.52-.12.14-.29.12-.53-.12-.7-.69-1.21-1.46-1.06-2.51.08-.57.32-1.1.54-1.63.12-.28.25-.56.37-.84.41-.95.17-1.85-.66-2.47-.71-.53-1.52-.74-2.38-.8-1.62-.11-3.17.23-4.68.81-1.44.55-2.81,1.25-4.2,1.89-2.13.98-4.34,1.67-6.7,1.83-1.9.12-3.76-.12-5.61-.55-2.82-.66-5.36-1.89-7.74-3.51-1.11-.75-2.17-1.56-3.32-2.26-.25-.16-.52-.29-.82-.34-.43-.07-.67.12-.68.56-.02.55.2,1.02.49,1.47.99,1.56,2.15,3,3.4,4.35,1.19,1.29,2.42,2.54,3.81,3.62,1.73,1.35,3.66,2.34,5.68,3.18,2.57,1.06,5.21,1.91,7.95,2.41,2.18.4,4.37.78,6.61.7,2.09-.07,4.13-.38,6.04-1.33,1.3-.65,2.49-1.43,3.38-2.61.65-.86,1.06-1.82,1.14-2.91.05-.66.34-.96,1.01-1.06.82-.12,1.64-.07,2.47-.09,0,0,.33.04.75-.02.07,0,.19-.03.35-.08.08-.03.19-.07.31-.16.14-.1.21-.2.29-.32.1-.14.15-.26.18-.39.01-.08.01-.12-.02-.16-.04-.05-.11-.04-.19-.03-.25.02-.37.04-.39.04-.41.08-1.65.24-2.31.31-.52.05-.88.05-1.29-.03-.43-.08-.78-.28-1.04-.63-.19-.25-.38-.5-.61-.72-.12-.12-.19-.27-.04-.41.15-.13.3-.06.42.06.21.19.39.41.55.64.27.41.66.57,1.12.59.65.04,1.29-.06,1.94-.13.63-.07,1.25-.14,1.88-.21.32-.03.48.13.46.46-.07.96-.86,1.71-1.82,1.73-.87.01-1.75,0-2.62.05-.04,0-.08,0-.12,0-.63.08-.7.15-.76.78-.15,1.48-.82,2.71-1.87,3.73-1.78,1.73-3.94,2.7-6.36,3.14-2.41.44-4.81.3-7.22-.04-3.75-.52-7.36-1.55-10.84-3.03-2.24-.96-4.35-2.15-6.91-4.38Z"/>
      <path class="cls-1" d="M50.17,36.3c0,.18-.05.32-.14.45-.1.12-.25.21-.45.27h0s.75,1.04.75,1.04h-.55l-.68-.97h-.32v.97h-.46v-2.52h.77c.13,0,.24,0,.35.02.11.01.2.04.28.06.15.06.26.14.34.25.08.11.12.25.12.42M49,36.7c.11,0,.2,0,.27-.01.07,0,.14-.02.18-.04.09-.04.16-.08.19-.14.04-.06.05-.13.05-.21,0-.07-.01-.13-.04-.18-.03-.05-.08-.09-.14-.12-.04-.02-.1-.03-.16-.04-.07,0-.15-.01-.25-.01h-.33v.77h.23Z"/>
      <path class="cls-1" d="M51.62,35.77c-.13-.31-.32-.59-.56-.83-.24-.24-.52-.43-.83-.56-.32-.14-.67-.21-1.02-.21s-.7.07-1.02.21c-.31.13-.59.32-.83.56-.24.24-.43.52-.56.83-.14.32-.21.67-.21,1.02s.07.7.21,1.02c.13.31.32.59.56.83.24.24.52.43.83.56.32.14.67.21,1.02.21s.7-.07,1.02-.21c.31-.13.59-.32.83-.56.24-.24.43-.52.56-.83.14-.32.21-.67.21-1.02s-.07-.7-.21-1.02M51.55,36.8c0,1.29-1.05,2.35-2.35,2.35s-2.35-1.05-2.35-2.35,1.05-2.35,2.35-2.35,2.35,1.05,2.35,2.35Z"/>
    </g>
  </g>
</svg>