<?xml version="1.0" encoding="UTF-8"?>
<svg id="Layer_2" data-name="Layer 2" xmlns="http://www.w3.org/2000/svg" viewBox="0 0 450.1 122.05">
  <defs>
    <style>
      .cls-1 {
        fill: #0d2249;
      }

      .cls-2 {
        fill: #4784de;
      }
    </style>
  </defs>
  <g id="Layer_1-2" data-name="Layer 1">
    <g>
      <g>
        <path class="cls-1" d="M230.42,92.13V15.79c0-.94.76-1.71,1.71-1.71h32.43c.94,0,1.71.76,1.71,1.71v8.6c0,.94-.76,1.71-1.71,1.71h-14.8c-.94,0-1.71.76-1.71,1.71v16.38c0,.94.76,1.71,1.71,1.71h10.47c.94,0,1.71.76,1.71,1.71v8.8c0,.94-.76,1.71-1.71,1.71h-10.47c-.94,0-1.71.76-1.71,1.71v20.41c0,.94.76,1.71,1.71,1.71h15c.94,0,1.71.76,1.71,1.71v8.5c0,.94-.76,1.71-1.71,1.71h-32.62c-.94,0-1.71-.76-1.71-1.71Z"/>
        <path class="cls-1" d="M373.91,92.13V15.79c0-.94.76-1.71,1.71-1.71h32.43c.94,0,1.71.76,1.71,1.71v8.6c0,.94-.76,1.71-1.71,1.71h-14.8c-.94,0-1.71.76-1.71,1.71v16.38c0,.94.76,1.71,1.71,1.71h10.47c.94,0,1.71.76,1.71,1.71v8.8c0,.94-.76,1.71-1.71,1.71h-10.47c-.94,0-1.71.76-1.71,1.71v20.41c0,.94.76,1.71,1.71,1.71h15c.94,0,1.71.76,1.71,1.71v8.5c0,.94-.76,1.71-1.71,1.71h-32.62c-.94,0-1.71-.76-1.71-1.71Z"/>
        <path class="cls-1" d="M205.12,95.01c-4.99,0-9.16-.89-12.5-2.66-3.35-1.77-5.88-4.51-7.58-8.22-1.55-3.37-2.5-9.41-2.8-14.6-.05-.89.54-1.81,1.45-1.81h11.67c1.01,0,1.9.6,1.95,1.61.13,2.55.42,4.68.87,6.38.56,2.1,1.34,3.61,2.36,4.53,1.02.92,2.25,1.38,3.69,1.38,1.84,0,3.03-.62,3.59-1.87.56-1.25.84-2.56.84-3.94,0-3.28-.79-6.05-2.36-8.32-1.58-2.26-3.71-4.54-6.4-6.84l-6.89-6.01c-3.02-2.56-5.56-5.46-7.63-8.71-2.07-3.25-3.1-7.27-3.1-12.06,0-6.76,2-11.93,6.01-15.51,4-3.58,9.45-5.37,16.34-5.37,4.27,0,7.69.72,10.29,2.17,2.59,1.44,4.56,3.33,5.91,5.66,1.34,2.33,2.26,4.79,2.76,7.38.38,2,.9,5.39,1.03,7.25.06.91-.58,1.83-1.49,1.83h-12.02c-.99,0-1.86-.63-1.91-1.62-.08-1.6-.2-3.04-.37-4.31-.23-1.74-.71-3.08-1.43-4.04-.72-.95-1.84-1.43-3.35-1.43-1.64,0-2.84.69-3.59,2.07s-1.13,2.76-1.13,4.14c0,2.95.7,5.37,2.12,7.24,1.41,1.87,3.27,3.82,5.56,5.86l6.6,5.81c3.48,2.95,6.42,6.3,8.81,10.04,2.39,3.74,3.59,8.37,3.59,13.88,0,3.74-.85,7.14-2.56,10.19-1.71,3.05-4.12,5.46-7.24,7.24-3.12,1.77-6.81,2.66-11.08,2.66Z"/>
        <path class="cls-1" d="M310.33,107.92c-.36,1.01-1.55,1.43-2.48.89-1.03-.6-2.17-1.35-3.42-2.26-2.04-1.48-4.06-3.23-6.07-5.23-2.01-2.01-3.7-4.07-5.08-6.17-.26.06-.53.1-.79.1h-.89c-5.99,0-10.73-1.05-14.22-3.16-3.49-2.11-5.99-5.13-7.5-9.08-1.51-3.95-2.27-8.65-2.27-14.12v-29.72c0-5.53.76-10.23,2.27-14.12,1.51-3.88,4.01-6.86,7.5-8.94,3.49-2.07,8.23-3.11,14.22-3.11s10.84,1.04,14.37,3.11c3.52,2.07,6.04,5.05,7.55,8.94,1.51,3.88,2.27,8.59,2.27,14.12v29.72c0,3.75-.35,7.14-1.04,10.17-.69,3.03-1.81,5.66-3.36,7.9-1.55,2.24-3.6,4.02-6.17,5.33.85.92,1.74,1.83,2.67,2.72.92.89,1.84,1.71,2.76,2.47.53.43,1.05.82,1.58,1.15.68.43.98,1.26.71,2.02l-2.61,7.28ZM291.6,82.71c1.84,0,3.19-.46,4.05-1.38.85-.92,1.41-2.11,1.68-3.55.26-1.45.39-2.93.39-4.44v-38.51c0-1.58-.13-3.08-.39-4.49-.26-1.41-.82-2.58-1.68-3.51-.86-.92-2.21-1.38-4.05-1.38s-3.18.46-4,1.38c-.82.92-1.35,2.09-1.58,3.51-.23,1.42-.35,2.91-.35,4.49v38.51c0,1.52.11,3,.35,4.44.23,1.45.76,2.63,1.58,3.55.82.92,2.15,1.38,4,1.38Z"/>
        <path class="cls-1" d="M414.06,92.35V15.79c0-.94.76-1.71,1.71-1.71h14.26c.94,0,1.71.76,1.71,1.71v64.61c0,.94.76,1.71,1.71,1.71h14.95c.94,0,1.71.76,1.71,1.71v8.54c0,.94-.76,1.71-1.71,1.71h-32.63c-.94,0-1.71-.76-1.71-1.71Z"/>
        <path class="cls-1" d="M344.6,95.24c-6.12,0-10.91-1-14.37-3.01-3.46-2.01-5.87-4.94-7.26-8.79-1.38-3.85-2.07-8.57-2.07-14.17V15.79c0-.94.76-1.71,1.71-1.71h14.06c.94,0,1.71.76,1.71,1.71v56.15c0,1.65.13,3.29.39,4.94.26,1.65.84,3,1.73,4.05.89,1.05,2.25,1.58,4.1,1.58s3.29-.53,4.15-1.58c.85-1.05,1.4-2.4,1.63-4.05.23-1.64.35-3.29.35-4.94V15.79c0-.94.76-1.71,1.71-1.71h14.16c.94,0,1.71.76,1.71,1.71v53.49c0,5.6-.71,10.32-2.12,14.17-1.42,3.85-3.84,6.78-7.26,8.79-3.42,2.01-8.19,3.01-14.32,3.01Z"/>
      </g>
      <g>
        <path class="cls-2" d="M67.59,30.24c12.17-2.35,56.49-14.08,65.35-10.27.74.32,1.6.1,2.03-.59l10.33-16.61c.33-.54,0-1.24-.63-1.32-21.3-2.81-6.68-4.89-77.27,28.16-.36.17-.19.71.2.64Z"/>
        <path class="cls-2" d="M167.07,30.57c-11.47-.79-78.7-3.24-166.88,38.2-.37.17-.16.74.23.61,16.13-5.28,67.6-20.89,116.59-22.61,0,0-17.33,5.65-75.01,36.03-1.2.63-2.22,1.58-2.94,2.74l-22.08,35.52c-.33.54.22,1.19.8.94,65.22-27.69,132.49-61.62,150.13-89.79.43-.69-.02-1.59-.83-1.64Z"/>
      </g>
    </g>
  </g>
</svg>