<?xml version="1.0" encoding="UTF-8"?>
<svg id="Layer_2" data-name="Layer 2" xmlns="http://www.w3.org/2000/svg" viewBox="0 0 359.64 137.5">
  <g id="Layer_1-2" data-name="Layer 1">
    <g>
      <g>
        <polygon points="161.7 46.74 165.11 46.74 165.11 21.2 174.6 21.2 174.6 18.03 152.22 18.03 152.22 21.2 161.7 21.2 161.7 46.74"/>
        <rect x="178.61" y="18.03" width="3.41" height="28.71"/>
        <polygon points="192.56 22.65 192.64 22.65 202.94 46.74 205.01 46.74 215.3 22.65 215.39 22.65 215.39 46.74 218.79 46.74 218.79 18.03 213.84 18.03 204.03 40.54 203.95 40.54 194.22 18.03 189.15 18.03 189.15 46.74 192.56 46.74 192.56 22.65"/>
        <path d="M168.27,53.3c-2.14,0-4.1.39-5.88,1.18-1.78.78-3.33,1.85-4.62,3.2-1.3,1.35-2.3,2.95-3.02,4.78-.72,1.84-1.08,3.81-1.08,5.92s.37,4.2,1.12,6.04c.74,1.84,1.77,3.43,3.08,4.76,1.31,1.34,2.86,2.39,4.64,3.14,1.78.76,3.7,1.14,5.76,1.14,2.3,0,4.36-.41,6.18-1.22,1.82-.81,3.38-2.08,4.68-3.81l-2.55-2.15c-1.03,1.3-2.23,2.29-3.61,2.98s-2.95,1.03-4.7,1.03c-1.62,0-3.1-.31-4.44-.93-1.34-.62-2.49-1.47-3.45-2.53-.96-1.07-1.71-2.32-2.25-3.77-.54-1.45-.81-3.01-.81-4.68,0-1.57.27-3.07.81-4.52.54-1.45,1.3-2.72,2.27-3.81.97-1.09,2.13-1.97,3.47-2.62,1.34-.65,2.8-.97,4.4-.97,1.38,0,2.7.29,3.97.87,1.27.58,2.34,1.45,3.2,2.62l2.96-2.15c-1.22-1.59-2.72-2.74-4.52-3.45-1.8-.7-3.67-1.05-5.62-1.05Z"/>
        <path d="M193.21,54.03l-12.65,28.71h3.85l2.96-7.05h14.35l2.92,7.05h3.97l-12.2-28.71h-3.2ZM188.71,72.52l5.96-14.11h.08l5.68,14.11h-11.72Z"/>
        <polygon points="238.66 58.65 238.66 82.74 242.06 82.74 242.06 54.03 237.12 54.03 227.31 76.54 227.22 76.54 217.49 54.03 212.43 54.03 212.43 82.74 215.83 82.74 215.83 58.65 215.91 58.65 226.21 82.74 228.28 82.74 238.58 58.65 238.66 58.65"/>
        <path d="M261.53,69.48c1.11-.24,2.13-.66,3.06-1.26s1.7-1.41,2.29-2.43c.59-1.03.89-2.32.89-3.89,0-1.49-.28-2.74-.83-3.75-.55-1.01-1.3-1.82-2.23-2.43-.93-.61-2-1.04-3.2-1.3-1.2-.26-2.47-.39-3.79-.39h-8.51v28.71h3.41v-12.89h5.76c1,0,2.05-.12,3.16-.36ZM252.61,57.2h5.76c1.7,0,3.09.38,4.16,1.16,1.07.77,1.6,1.97,1.6,3.59s-.53,2.82-1.6,3.59c-1.07.77-2.45,1.16-4.16,1.16h-5.76v-9.49Z"/>
        <path d="M285.79,82.37c1.34-.24,2.54-.67,3.61-1.28,1.07-.61,1.93-1.43,2.6-2.45.66-1.03.99-2.34.99-3.93,0-.95-.16-1.83-.49-2.66-.33-.82-.78-1.55-1.36-2.17-.58-.62-1.27-1.13-2.07-1.52-.8-.39-1.66-.63-2.57-.71v-.08c1.54-.46,2.76-1.24,3.67-2.33.9-1.09,1.36-2.48,1.36-4.16,0-1.32-.28-2.43-.83-3.32s-1.28-1.61-2.17-2.17c-.89-.55-1.91-.95-3.04-1.2s-2.3-.37-3.49-.37h-8.76v28.71h8.55c1.32,0,2.66-.12,3.99-.36ZM276.65,57.2h5.07c.76,0,1.51.06,2.25.18s1.41.34,1.99.67c.58.32,1.05.76,1.4,1.32.35.55.53,1.28.53,2.17,0,1-.19,1.8-.57,2.41s-.88,1.08-1.5,1.42-1.32.56-2.09.67c-.77.11-1.56.16-2.37.16h-4.7v-9ZM276.65,69.36h5.84c.86,0,1.71.08,2.53.24.82.16,1.55.45,2.19.85.63.41,1.15.95,1.54,1.62.39.68.59,1.51.59,2.51,0,.92-.2,1.7-.61,2.33-.41.64-.94,1.15-1.6,1.54-.66.39-1.41.68-2.23.85s-1.66.26-2.49.26h-5.76v-10.22Z"/>
        <polygon points="302.19 69.36 315.86 69.36 315.86 66.2 302.19 66.2 302.19 57.2 316.83 57.2 316.83 54.03 298.79 54.03 298.79 82.74 317.56 82.74 317.56 79.58 302.19 79.58 302.19 69.36"/>
        <polygon points="326.23 54.03 322.83 54.03 322.83 82.74 339.37 82.74 339.37 79.58 326.23 79.58 326.23 54.03"/>
        <polygon points="346.51 79.58 346.51 54.03 343.1 54.03 343.1 82.74 359.64 82.74 359.64 79.58 346.51 79.58"/>
        <polygon points="181.17 108.93 181.09 108.93 175.12 90.03 169.25 90.03 163.25 108.44 163.16 108.44 158.58 90.03 151.69 90.03 160.2 118.74 165.64 118.74 171.96 98.87 172.04 98.87 178.37 118.74 184 118.74 192.4 90.03 185.99 90.03 181.17 108.93"/>
        <path d="M220.29,93.38c-1.38-1.31-3.01-2.32-4.91-3.02-1.89-.7-3.96-1.05-6.2-1.05s-4.31.35-6.2,1.05c-1.89.7-3.53,1.71-4.91,3.02-1.38,1.31-2.45,2.9-3.22,4.76s-1.16,3.95-1.16,6.24.38,4.38,1.16,6.24c.77,1.87,1.84,3.45,3.22,4.76,1.38,1.31,3.01,2.32,4.91,3.02,1.89.7,3.96,1.05,6.2,1.05s4.31-.35,6.2-1.05c1.89-.7,3.53-1.71,4.91-3.02,1.38-1.31,2.45-2.9,3.22-4.76.77-1.86,1.16-3.95,1.16-6.24s-.38-4.38-1.16-6.24c-.77-1.87-1.84-3.45-3.22-4.76ZM217.47,108.1c-.42,1.12-1.02,2.09-1.8,2.92-.78.83-1.72,1.47-2.82,1.93-1.09.46-2.32.69-3.67.69s-2.57-.23-3.67-.69c-1.09-.46-2.03-1.1-2.82-1.93-.78-.82-1.39-1.8-1.8-2.92s-.63-2.36-.63-3.71.21-2.55.63-3.69c.42-1.14,1.02-2.12,1.8-2.94.78-.82,1.72-1.47,2.82-1.93,1.1-.46,2.32-.69,3.67-.69s2.57.23,3.67.69c1.09.46,2.03,1.1,2.82,1.93.78.82,1.38,1.8,1.8,2.94.42,1.13.63,2.37.63,3.69s-.21,2.59-.63,3.71Z"/>
        <path d="M249.32,103.92c1.05-1.42,1.58-3.14,1.58-5.17,0-1.68-.29-3.07-.87-4.2-.58-1.12-1.37-2.01-2.35-2.68-.99-.66-2.14-1.14-3.45-1.42-1.31-.28-2.7-.43-4.16-.43h-11.11v28.71h6.33v-11.47h3.12l6,11.47h7.58l-7.3-12.12c2.03-.38,3.57-1.28,4.62-2.7ZM243.83,100.53c-.34.43-.76.75-1.28.95-.51.2-1.09.32-1.72.37s-1.24.06-1.8.06h-3.73v-6.53h4.14c.57,0,1.15.04,1.74.12s1.12.24,1.58.47c.46.23.84.56,1.14.99.3.43.45,1.01.45,1.74,0,.78-.17,1.39-.51,1.82Z"/>
        <polygon points="281.23 90.03 272.96 90.03 261.81 101.95 261.81 90.03 255.48 90.03 255.48 118.74 261.81 118.74 261.81 105.12 273.49 118.74 282.33 118.74 268.46 103.37 281.23 90.03"/>
        <path d="M299.66,103.62c-.99-.59-2.05-1.05-3.18-1.38-1.13-.32-2.2-.65-3.18-.97-.99-.32-1.8-.72-2.45-1.18-.65-.46-.97-1.12-.97-1.99,0-.54.13-1,.41-1.38.27-.38.62-.68,1.05-.91s.89-.4,1.38-.51c.49-.11.96-.16,1.42-.16.78,0,1.62.16,2.49.47.88.31,1.57.79,2.09,1.44l4.34-4.74c-1.22-1.08-2.58-1.85-4.09-2.31-1.51-.46-3.08-.69-4.7-.69-1.41,0-2.77.2-4.1.59-1.32.39-2.49.98-3.51,1.76-1.01.78-1.82,1.76-2.43,2.92-.61,1.16-.91,2.51-.91,4.05s.33,2.88.99,3.85c.66.97,1.49,1.76,2.49,2.35,1,.6,2.08,1.07,3.24,1.42s2.24.7,3.24,1.05c1,.35,1.83.78,2.49,1.28.66.5.99,1.18.99,2.05,0,.51-.13.96-.38,1.34-.26.38-.6.69-1.01.93-.42.24-.89.43-1.42.55-.53.12-1.05.18-1.56.18-1.05,0-2.08-.24-3.06-.71-.99-.47-1.8-1.14-2.45-2.01l-4.5,4.95c1.38,1.27,2.86,2.19,4.46,2.76,1.59.57,3.32.85,5.19.85,1.49,0,2.9-.19,4.24-.57,1.34-.38,2.51-.96,3.53-1.74,1.01-.78,1.82-1.77,2.41-2.96.59-1.19.89-2.58.89-4.18,0-1.68-.33-3.01-.97-4.01-.65-1-1.47-1.8-2.45-2.39Z"/>
      </g>
      <path d="M17.88,22.5C-7.66,50.6-5.59,94.08,22.5,119.62c28.09,25.54,71.58,23.47,97.12-4.62,4.42-4.86,7.99-10.19,10.77-15.8,11.47-23.2,8.95-51.31-6.99-72.15-2.48-3.24-5.27-6.32-8.4-9.17C86.9-7.66,43.42-5.59,17.88,22.5ZM23.8,27.89C46.33,3.1,84.83,1.27,109.62,23.8c2.27,2.06,4.34,4.26,6.23,6.57l-48.29,21.35-7.42,1.63c-11.71,2.58-23.93,1.31-34.86-3.61l-6.67-3.01s7.54,12.39,29.68,13.81c1.2.08,1.57,1.69.5,2.24-3.06,1.59-10.23,3.73-27.08,5.13,0,0,11.66,3.75,26.09,2.53,1.47-.12,2.18,1.74.99,2.61-2.29,1.65-6.67,3.77-15.06,5.79,0,0,18.04,4.83,32.8.37,1.55-.47,2.77,1.39,1.75,2.64-1.64,2.01-4.94,5.06-11.36,9.68,0,0,17.24,3.94,36.75-6.59,1.25-.67,2.7.52,2.21,1.85-.82,2.23-3.45,6.27-10.31,13.62,0,0,16.01,1.09,25.47-2.6,1.37-.53,2.82.56,2.71,2.03l-.25,3.21,6.35-1.45c-1.8,2.79-3.83,5.47-6.14,8.01-22.53,24.79-61.03,26.62-85.82,4.09C3.1,91.17,1.27,52.67,23.8,27.89Z"/>
    </g>
  </g>
</svg>