<?xml version="1.0" encoding="UTF-8"?>
<svg id="Layer_2" data-name="Layer 2" xmlns="http://www.w3.org/2000/svg" viewBox="0 0 83.89 60.87">
  <defs>
    <style>
      .cls-1 {
        fill: #fff;
      }
    </style>
  </defs>
  <g id="Layer_1-2" data-name="Layer 1">
    <path class="cls-1" d="M82.53,45.5s-.13.04-.31.04c-.53,0-1.62-.22-3.02-1.8l-16.68-18.61c3.98-5.25,9.41-7.79,13.18-7.79.66,0,1.22.07,1.68.19.2.05.39-.08.44-.29.4-1.9,1.53-3.54,3.13-4.68.25-.18.17-.58-.13-.65-1.61-.38-3.13-.39-3.89-.39-2.28,0-5.17.44-8.19,2.15-4.42,2.5-9.15,7.18-11.56,12.48v-8.98c0-3.15,3.81-.74,3.81-3.28,0-.53-.35-1.01-1.18-1.01h-11.95c-.88,0-1.27.61-1.27,1.18,0,.61.39,1.23,1.14,1.23.09,0,2.54,0,2.54,1.75v26.62c0,1.22-1.18,1.67-1.91,1.84-.49-6.73-6.12-11.17-10.04-11.62,3.84-.54,6.84-3.48,6.84-10.32,0-7.47-4.24-10.21-10.3-10.62h0c-.21-.9-.49-1.79-.86-2.64-.88-2.05-2.11-3.84-3.68-5.38-1.58-1.54-3.43-2.75-5.57-3.61-2.14-.87-4.49-1.3-7.04-1.3s-4.9.43-7.06,1.3c-2.16.87-4.03,2.07-5.62,3.61-1.59,1.54-2.83,3.34-3.71,5.38-.88,2.05-1.32,4.23-1.32,6.56s.44,4.51,1.32,6.54c.88,2.03,2.12,3.82,3.71,5.36,1.59,1.54,3.46,2.75,5.62,3.61,1.5.6,3.11.98,4.8,1.17.74.08,1.48.13,2.26.13,2.55,0,4.9-.43,7.04-1.3.07-.03.12-.06.19-.09,2.06-.86,3.86-2.03,5.38-3.53,1.57-1.54,2.8-3.33,3.68-5.36.36-.83.64-1.68.85-2.56-.89-.77-2.04-1.24-3.5-1.24l-4.3-.05c-.1.46-.22.91-.37,1.35-.41,1.18-.98,2.23-1.71,3.17l.02-5.79c0-1.02.42-1.44,1.44-1.44h.91s4.01.06,4.01.06c0,0,0,0,0,0,.38,0,.73.04,1.07.1.06.01.13.02.19.03.33.07.65.16.94.29.02,0,.03.02.05.02.63.27,1.17.66,1.63,1.14,0,0,0,0,0,0h0c1.4,1.47,2.02,3.82,1.99,6.34,0,3.9-1.74,7.92-6.18,7.92h-1.46c-1.37,1.19-2.91,2.16-4.66,2.89-.06.03-.12.06-.19.09-2.14.87-4.49,1.3-7.04,1.3-.77,0-1.52-.05-2.26-.13v18.18c0,2.4-3.12,2.64-3.12,2.64-1.2,0-1.74.66-1.74,1.44,0,.84.66,1.74,1.74,1.74h22.68c8.16,0,12.68-6.6,13.31-12.97h11.53c.83,0,1.18-.57,1.18-1.18,0-.57-.48-1.18-1.18-1.18,0,0-2.63-.09-2.63-1.93v-9.76c.22-.79.96-2.06,1.45-3.07l10.86,12.39c.44.48.61.88.61,1.18,0,1.88-3.2.44-3.2,2.36,0,.61.57,1.18,1.4,1.18h14.19c.88,0,1.36-.66,1.36-1.31-.04-.53-.44-1.05-1.36-1.09ZM12.09,12.88c-1.08,0-1.68.84-1.68,1.68,0,.78.54,1.56,1.68,1.56,0,0,3.36,0,3.36,2.46v8.69c-.66-.14-1.29-.34-1.88-.6-1.21-.55-2.24-1.31-3.07-2.29-.83-.98-1.46-2.11-1.89-3.4-.42-1.29-.64-2.66-.64-4.11s.21-2.76.64-4.04c.43-1.27,1.05-2.42,1.89-3.42.83-1.01,1.86-1.79,3.07-2.36s2.59-.85,4.13-.85,2.86.28,4.06.85c1.2.57,2.2,1.34,3.02,2.31.82.98,1.45,2.11,1.89,3.4.01.04.02.08.04.12h-14.63ZM31.53,56.61h-5.28c-.72,0-1.26-.42-1.26-1.38v-18h6.48c5.22,0,7.98,3.84,7.98,8.88.06,5.28-1.14,10.5-7.92,10.5Z"/>
  </g>
</svg>